# Blender 4.0.2
# www.blender.org
o Boot
v 0.077078 0.137584 0.080515 1.0000 0.0000 0.0000
v 0.064443 0.125277 -0.253903 1.0000 0.0000 0.0000
v 0.087384 0.062698 0.090813 1.0000 0.0000 0.0000
v 0.110065 0.062698 -0.139321 1.0000 0.0000 0.0000
v 0.089745 0.062698 -0.275580 1.0000 0.0000 0.0000
v 0.054325 0.200231 -0.054325 1.0000 0.0000 0.0000
v 0.054325 0.200231 0.054325 1.0000 0.0000 0.0000
v 0.102895 0.137990 -0.004202 1.0000 0.0000 0.0000
v -0.000000 0.130945 -0.267113 1.0000 0.0000 0.0000
v 0.077090 0.144057 -0.197913 1.0000 0.0000 0.0000
v 0.115046 0.034325 -0.202934 1.0000 0.0000 0.0000
v 0.110694 0.042880 -0.142743 1.0000 0.0000 0.0000
v 0.088177 0.042880 -0.271166 1.0000 0.0000 0.0000
v 0.119801 0.062698 -0.208088 1.0000 0.0000 0.0000
v -0.000000 0.062698 -0.304304 1.0000 0.0000 0.0000
v -0.000000 0.034325 -0.290945 1.0000 0.0000 0.0000
v 0.117736 0.062698 -0.006994 1.0000 0.0000 0.0000
v 0.087882 0.042880 0.088701 1.0000 0.0000 0.0000
v 0.115046 0.034325 -0.013065 1.0000 0.0000 0.0000
v 0.000000 0.062698 0.125333 1.0000 0.0000 0.0000
v 0.000000 0.034325 0.116244 1.0000 0.0000 0.0000
v 0.082359 0.099594 0.086523 1.0000 0.0000 0.0000
v 0.101974 0.100204 -0.130135 1.0000 0.0000 0.0000
v 0.085202 0.098016 -0.272492 1.0000 0.0000 0.0000
v 0.075623 0.201455 -0.000000 1.0000 0.0000 0.0000
v 0.000000 0.201455 0.075623 1.0000 0.0000 0.0000
v -0.000000 0.201455 -0.075623 1.0000 0.0000 0.0000
v 0.074682 0.215710 -0.074682 1.0000 0.0000 0.0000
v 0.074682 0.215710 0.074682 1.0000 0.0000 0.0000
v 0.000000 0.156073 0.000000 1.0000 0.0000 0.0000
v 0.112643 0.099032 -0.203815 1.0000 0.0000 0.0000
v 0.110749 0.099696 -0.005566 1.0000 0.0000 0.0000
v -0.000000 0.155353 -0.191935 1.0000 0.0000 0.0000
v -0.000000 0.098574 -0.301366 1.0000 0.0000 0.0000
v 0.000000 0.099594 0.119027 1.0000 0.0000 0.0000
v 0.118665 0.042880 -0.207004 1.0000 0.0000 0.0000
v -0.000000 0.042880 -0.298715 1.0000 0.0000 0.0000
v 0.118407 0.042880 -0.009663 1.0000 0.0000 0.0000
v 0.000000 0.042880 0.123418 1.0000 0.0000 0.0000
v 0.000000 0.215796 0.102752 1.0000 0.0000 0.0000
v -0.000000 0.215796 -0.102752 1.0000 0.0000 0.0000
v 0.085390 0.034325 0.082511 1.0000 0.0000 0.0000
v 0.107546 0.034325 -0.142374 1.0000 0.0000 0.0000
v 0.085390 0.034325 -0.264361 1.0000 0.0000 0.0000
v 0.082319 0.202555 -0.082319 1.0000 0.0000 0.0000
v 0.083302 0.187013 -0.083302 1.0000 0.0000 0.0000
v 0.077368 0.173250 0.077368 1.0000 0.0000 0.0000
v 0.083302 0.187013 0.083302 1.0000 0.0000 0.0000
v 0.082319 0.202555 0.082319 1.0000 0.0000 0.0000
v 0.000000 0.202597 0.113221 1.0000 0.0000 0.0000
v 0.000000 0.187025 0.114550 1.0000 0.0000 0.0000
v -0.000000 0.202597 -0.113221 1.0000 0.0000 0.0000
v -0.000000 0.187025 -0.114550 1.0000 0.0000 0.0000
v 0.102752 0.215796 -0.000000 1.0000 0.0000 0.0000
v 0.113221 0.202597 -0.000000 1.0000 0.0000 0.0000
v 0.114549 0.187025 -0.000000 1.0000 0.0000 0.0000
v 0.079846 0.141481 -0.120792 1.0000 0.0000 0.0000
v 0.077368 0.173250 -0.077368 1.0000 0.0000 0.0000
v 0.106381 0.173250 -0.000000 1.0000 0.0000 0.0000
v 0.000000 0.173250 0.106381 1.0000 0.0000 0.0000
v 0.000000 0.137584 0.110708 1.0000 0.0000 0.0000
v -0.000000 0.173250 -0.106381 1.0000 0.0000 0.0000
v -0.000000 0.152049 -0.150815 1.0000 0.0000 0.0000
v -0.077078 0.137584 0.080515 1.0000 0.0000 0.0000
v -0.064443 0.125277 -0.253903 1.0000 0.0000 0.0000
v -0.087384 0.062698 0.090813 1.0000 0.0000 0.0000
v -0.110065 0.062698 -0.139321 1.0000 0.0000 0.0000
v -0.089745 0.062698 -0.275579 1.0000 0.0000 0.0000
v -0.054325 0.200231 -0.054325 1.0000 0.0000 0.0000
v -0.054325 0.200231 0.054325 1.0000 0.0000 0.0000
v -0.102895 0.137990 -0.004202 1.0000 0.0000 0.0000
v -0.077091 0.144057 -0.197913 1.0000 0.0000 0.0000
v -0.115046 0.034325 -0.202934 1.0000 0.0000 0.0000
v -0.110694 0.042880 -0.142743 1.0000 0.0000 0.0000
v -0.088177 0.042880 -0.271166 1.0000 0.0000 0.0000
v -0.119801 0.062698 -0.208087 1.0000 0.0000 0.0000
v -0.117736 0.062698 -0.006994 1.0000 0.0000 0.0000
v -0.087882 0.042880 0.088701 1.0000 0.0000 0.0000
v -0.115046 0.034325 -0.013065 1.0000 0.0000 0.0000
v -0.082359 0.099594 0.086523 1.0000 0.0000 0.0000
v -0.101974 0.100204 -0.130135 1.0000 0.0000 0.0000
v -0.085202 0.098016 -0.272492 1.0000 0.0000 0.0000
v -0.075623 0.201455 0.000000 1.0000 0.0000 0.0000
v -0.074682 0.215710 -0.074682 1.0000 0.0000 0.0000
v -0.074682 0.215710 0.074682 1.0000 0.0000 0.0000
v -0.112643 0.099032 -0.203815 1.0000 0.0000 0.0000
v -0.110749 0.099696 -0.005566 1.0000 0.0000 0.0000
v -0.118665 0.042880 -0.207004 1.0000 0.0000 0.0000
v -0.118407 0.042880 -0.009662 1.0000 0.0000 0.0000
v -0.085390 0.034325 0.082511 1.0000 0.0000 0.0000
v -0.107546 0.034325 -0.142374 1.0000 0.0000 0.0000
v -0.085390 0.034325 -0.264361 1.0000 0.0000 0.0000
v -0.082319 0.202555 -0.082319 1.0000 0.0000 0.0000
v -0.083302 0.187013 -0.083302 1.0000 0.0000 0.0000
v -0.077368 0.173250 0.077368 1.0000 0.0000 0.0000
v -0.083302 0.187013 0.083302 1.0000 0.0000 0.0000
v -0.082319 0.202555 0.082319 1.0000 0.0000 0.0000
v -0.102752 0.215796 0.000000 1.0000 0.0000 0.0000
v -0.113221 0.202597 0.000000 1.0000 0.0000 0.0000
v -0.114549 0.187025 0.000000 1.0000 0.0000 0.0000
v -0.079846 0.141481 -0.120792 1.0000 0.0000 0.0000
v -0.077368 0.173250 -0.077368 1.0000 0.0000 0.0000
v -0.106381 0.173250 0.000000 1.0000 0.0000 0.0000
v 0.105173 0.000000 -0.141745 0.0000 1.0000 0.0000
v 0.083512 0.000000 0.078197 0.0000 1.0000 0.0000
v 0.000000 0.000000 0.111188 0.0000 1.0000 0.0000
v -0.000000 0.000000 -0.141745 0.0000 1.0000 0.0000
v -0.000000 0.000000 -0.285838 0.0000 1.0000 0.0000
v 0.115046 0.034325 -0.202934 0.0000 1.0000 0.0000
v -0.000000 0.034325 -0.290945 0.0000 1.0000 0.0000
v 0.115046 0.034325 -0.013065 0.0000 1.0000 0.0000
v 0.000000 0.034325 0.116244 0.0000 1.0000 0.0000
v -0.000000 0.000000 -0.202955 0.0000 1.0000 0.0000
v 0.085390 0.034325 0.082511 0.0000 1.0000 0.0000
v 0.086483 0.024374 0.085023 0.0000 1.0000 0.0000
v 0.085796 0.011810 0.083443 0.0000 1.0000 0.0000
v 0.107546 0.034325 -0.142374 0.0000 1.0000 0.0000
v 0.108927 0.024374 -0.142740 0.0000 1.0000 0.0000
v 0.108058 0.011810 -0.142509 0.0000 1.0000 0.0000
v 0.083512 0.000000 -0.259838 0.0000 1.0000 0.0000
v 0.085390 0.034325 -0.264361 0.0000 1.0000 0.0000
v 0.085796 0.011810 -0.265339 0.0000 1.0000 0.0000
v 0.086483 0.024374 -0.266995 0.0000 1.0000 0.0000
v 0.112513 0.000000 -0.200066 0.0000 1.0000 0.0000
v 0.115593 0.011810 -0.203554 0.0000 1.0000 0.0000
v 0.116520 0.024374 -0.204604 0.0000 1.0000 0.0000
v -0.000000 0.011810 -0.292049 0.0000 1.0000 0.0000
v -0.000000 0.024374 -0.293919 0.0000 1.0000 0.0000
v 0.115593 0.011810 -0.012586 0.0000 1.0000 0.0000
v 0.116520 0.024374 -0.011776 0.0000 1.0000 0.0000
v 0.000000 0.011810 0.117336 0.0000 1.0000 0.0000
v 0.000000 0.024374 0.119187 0.0000 1.0000 0.0000
v 0.000000 -0.000000 0.002378 0.0000 1.0000 0.0000
v -0.000000 -0.000000 -0.026439 0.0000 1.0000 0.0000
v -0.000000 0.011810 -0.008237 0.0000 1.0000 0.0000
v 0.109208 0.000000 -0.004629 0.0000 1.0000 0.0000
v 0.111676 0.000000 -0.029687 0.0000 1.0000 0.0000
v -0.105173 0.000000 -0.141745 0.0000 1.0000 0.0000
v -0.083512 0.000000 0.078197 0.0000 1.0000 0.0000
v -0.115046 0.034325 -0.202934 0.0000 1.0000 0.0000
v -0.115046 0.034325 -0.013065 0.0000 1.0000 0.0000
v -0.085390 0.034325 0.082511 0.0000 1.0000 0.0000
v -0.086483 0.024374 0.085023 0.0000 1.0000 0.0000
v -0.085796 0.011810 0.083444 0.0000 1.0000 0.0000
v -0.107546 0.034325 -0.142374 0.0000 1.0000 0.0000
v -0.108927 0.024374 -0.142739 0.0000 1.0000 0.0000
v -0.108059 0.011810 -0.142509 0.0000 1.0000 0.0000
v -0.083512 0.000000 -0.259838 0.0000 1.0000 0.0000
v -0.085390 0.034325 -0.264361 0.0000 1.0000 0.0000
v -0.085796 0.011810 -0.265339 0.0000 1.0000 0.0000
v -0.086483 0.024374 -0.266995 0.0000 1.0000 0.0000
v -0.112513 0.000000 -0.200066 0.0000 1.0000 0.0000
v -0.115593 0.011810 -0.203554 0.0000 1.0000 0.0000
v -0.116520 0.024374 -0.204604 0.0000 1.0000 0.0000
v -0.115593 0.011810 -0.012586 0.0000 1.0000 0.0000
v -0.116520 0.024374 -0.011776 0.0000 1.0000 0.0000
v -0.109208 0.000000 -0.004629 0.0000 1.0000 0.0000
v -0.111676 0.000000 -0.029687 0.0000 1.0000 0.0000
vn 0.6805 0.7075 -0.1906
vn 0.9399 0.3413 -0.0009
vn 0.9082 0.3976 -0.1306
vn 0.4927 0.8587 -0.1407
vn 0.9939 0.1030 0.0404
vn 0.9871 0.0563 -0.1501
vn 0.6653 -0.0212 -0.7462
vn 0.6128 0.4174 -0.6710
vn 0.3767 0.7967 -0.4725
vn 0.9668 0.2339 0.1028
vn 0.9871 0.1017 0.1238
vn 0.9830 0.1749 0.0562
vn 0.7183 0.1210 0.6851
vn 0.7174 0.1921 0.6696
vn 0.7237 0.0591 0.6875
vn 0.1885 0.9754 -0.1147
vn -0.0000 1.0000 0.0045
vn -0.0000 0.9273 -0.3744
vn -0.0000 0.6628 -0.7488
vn -0.0000 0.2590 -0.9659
vn -0.0000 -0.2197 0.9756
vn 0.4029 0.0378 0.9144
vn -0.0000 -0.2484 0.9687
vn 0.9384 -0.3443 0.0280
vn 0.9000 -0.4282 -0.0818
vn 0.9491 -0.2670 -0.1670
vn 0.9841 -0.1729 0.0412
vn 0.5578 -0.6147 -0.5577
vn 0.6024 -0.4042 -0.6883
vn -0.0000 -0.1865 -0.9825
vn -0.0000 -0.8323 -0.5544
vn 0.9726 -0.1955 0.1257
vn 0.6914 -0.3107 0.6522
vn 0.6594 -0.5573 0.5046
vn 0.9171 -0.3912 0.0773
vn 0.3670 -0.3872 0.8458
vn -0.0000 -0.8558 0.5173
vn -0.3376 0.8786 0.3376
vn -0.4921 0.8705 -0.0000
vn 0.3302 0.9439 -0.0000
vn 0.2475 0.9368 -0.2475
vn -0.3376 0.8786 -0.3376
vn 0.2475 0.9368 0.2475
vn -0.0000 0.7774 -0.6291
vn 0.1161 0.9503 0.2888
vn -0.1557 0.8856 0.4376
vn -0.0000 0.9774 -0.2114
vn -0.2234 0.9487 -0.2236
vn 0.3526 0.3700 0.8595
vn 0.6617 0.3526 0.6617
vn 0.3687 -0.2227 0.9025
vn 0.6911 -0.2113 0.6911
vn 0.3339 -0.2454 0.9101
vn 0.6916 -0.2817 0.6651
vn 0.6617 0.3526 -0.6617
vn -0.0000 0.6600 -0.7513
vn 0.6911 -0.2113 -0.6911
vn -0.0000 0.1673 -0.9859
vn 0.6037 -0.5207 -0.6037
vn -0.0000 -0.7757 -0.6311
vn 0.9369 0.3497 -0.0000
vn 0.9779 -0.2092 -0.0000
vn 0.9653 -0.2595 0.0277
vn -0.0000 0.9648 -0.2632
vn 0.7988 0.4603 -0.3873
vn -0.6805 0.7075 -0.1906
vn -0.4927 0.8587 -0.1407
vn -0.9082 0.3976 -0.1306
vn -0.9399 0.3413 -0.0009
vn -0.9871 0.0563 -0.1501
vn -0.9939 0.1030 0.0404
vn -0.6128 0.4174 -0.6710
vn -0.6653 -0.0212 -0.7462
vn -0.3767 0.7967 -0.4725
vn -0.9871 0.1017 0.1238
vn -0.9668 0.2339 0.1028
vn -0.9830 0.1749 0.0562
vn -0.7174 0.1921 0.6696
vn -0.7183 0.1210 0.6851
vn -0.7237 0.0591 0.6875
vn -0.9384 -0.3443 0.0280
vn -0.9841 -0.1729 0.0412
vn -0.9491 -0.2670 -0.1670
vn -0.9000 -0.4282 -0.0818
vn -0.6024 -0.4042 -0.6883
vn -0.5578 -0.6147 -0.5577
vn -0.9726 -0.1955 0.1257
vn -0.6914 -0.3107 0.6522
vn -0.9171 -0.3912 0.0773
vn -0.6594 -0.5573 0.5046
vn 0.3376 0.8786 0.3376
vn -0.2475 0.9368 -0.2475
vn -0.3302 0.9439 -0.0000
vn 0.4921 0.8705 -0.0000
vn -0.2475 0.9368 0.2475
vn 0.3376 0.8786 -0.3376
vn -0.6617 0.3526 0.6617
vn -0.6911 -0.2113 0.6911
vn -0.6916 -0.2817 0.6651
vn -0.6617 0.3526 -0.6617
vn -0.6911 -0.2113 -0.6911
vn -0.6037 -0.5207 -0.6037
vn -0.9369 0.3497 -0.0000
vn -0.9779 -0.2092 -0.0000
vn -0.9653 -0.2595 0.0277
vn -0.7988 0.4603 -0.3873
vn 0.9811 -0.1466 0.1264
vn 0.9691 -0.2402 -0.0562
vn 0.9721 -0.2327 0.0283
vn 0.9880 -0.1510 0.0338
vn -0.0000 -1.0000 -0.0000
vn 0.9511 -0.2876 -0.1123
vn 0.9660 -0.1942 -0.1707
vn 0.9827 0.0438 -0.1801
vn 0.9988 0.0339 0.0341
vn 0.9760 0.1709 -0.1348
vn 0.9904 0.1347 0.0298
vn 0.6201 -0.4238 -0.6603
vn 0.6226 -0.2760 -0.7323
vn 0.6404 0.0625 -0.7655
vn 0.6486 0.2586 -0.7159
vn -0.0000 -0.7056 -0.7086
vn 0.3028 -0.3146 -0.8997
vn 0.3166 0.0717 -0.9459
vn -0.0000 0.5774 -0.8165
vn 0.7015 -0.2607 0.6633
vn 0.9907 0.0402 0.1301
vn 0.7180 0.0590 0.6935
vn 0.9814 0.1593 0.1072
vn 0.7327 0.2411 0.6364
vn 0.7080 -0.3966 0.5844
vn 0.9106 -0.3018 0.2825
vn -0.0000 -0.7606 0.6492
vn -0.0000 -0.6414 0.7672
vn -0.0000 -0.3367 0.9416
vn -0.0000 0.6478 0.7618
vn -0.0399 -0.6110 -0.7907
vn -0.0000 -0.6422 -0.7666
vn -0.0000 -0.6418 -0.7669
vn 0.0185 -0.8319 0.5546
vn -0.0000 -0.8216 0.5701
vn -0.0000 -0.8423 0.5390
vn -0.9811 -0.1466 0.1264
vn -0.9880 -0.1510 0.0338
vn -0.9721 -0.2327 0.0283
vn -0.9691 -0.2402 -0.0562
vn -0.9660 -0.1942 -0.1707
vn -0.9511 -0.2876 -0.1123
vn -0.9988 0.0339 0.0341
vn -0.9827 0.0438 -0.1801
vn -0.9904 0.1347 0.0298
vn -0.9760 0.1709 -0.1348
vn -0.6226 -0.2760 -0.7323
vn -0.6201 -0.4238 -0.6603
vn -0.6404 0.0625 -0.7655
vn -0.6486 0.2586 -0.7159
vn -0.7015 -0.2607 0.6633
vn -0.7180 0.0590 0.6935
vn -0.9907 0.0402 0.1301
vn -0.7327 0.2411 0.6364
vn -0.9814 0.1593 0.1072
vn -0.7080 -0.3966 0.5844
vn -0.9106 -0.3018 0.2825
vn 0.0399 -0.6110 -0.7907
vn -0.0185 -0.8319 0.5546
vt 0.389818 0.642473
vt 0.444922 0.655229
vt 0.422263 0.786774
vt 0.376958 0.766711
vt 0.496679 0.669698
vt 0.458301 0.810202
vt 0.393967 0.876153
vt 0.376007 0.849615
vt 0.356850 0.824230
vt 0.426979 0.517680
vt 0.467307 0.500837
vt 0.390622 0.530132
vt 0.352464 0.474312
vt 0.368446 0.447187
vt 0.388518 0.415717
vt 0.302302 0.677304
vt 0.304978 0.764316
vt 0.307091 0.831204
vt 0.308237 0.867415
vt 0.309321 0.902197
vt 0.294834 0.428563
vt 0.293712 0.391004
vt 0.295734 0.458553
vt 0.539282 0.676686
vt 0.494958 0.825007
vt 0.480912 0.822341
vt 0.525651 0.676367
vt 0.417820 0.903858
vt 0.407586 0.894180
vt 0.310063 0.925932
vt 0.310544 0.941239
vt 0.493098 0.491586
vt 0.402514 0.395995
vt 0.413016 0.386282
vt 0.506846 0.489292
vt 0.292982 0.366493
vt 0.292504 0.350352
vt 0.322482 0.564435
vt 0.328249 0.540981
vt 0.340256 0.539227
vt 0.334336 0.573320
vt 0.317474 0.521809
vt 0.325081 0.512502
vt 0.297438 0.514807
vt 0.297100 0.503682
vt 0.299343 0.576098
vt 0.299827 0.591207
vt 0.305470 0.535681
vt 0.312569 0.542732
vt 0.306456 0.550929
vt 0.297889 0.529600
vt 0.296890 0.496758
vt 0.329439 0.507095
vt 0.296661 0.489140
vt 0.333881 0.501499
vt 0.296429 0.481429
vt 0.339558 0.494280
vt 0.341629 0.578613
vt 0.300154 0.601368
vt 0.349583 0.584119
vt 0.300542 0.613341
vt 0.360643 0.591488
vt 0.300961 0.626098
vt 0.347810 0.537947
vt 0.356153 0.536389
vt 0.364501 0.534475
vt 0.857991 0.403451
vt 0.849102 0.382726
vt 0.859145 0.273527
vt 0.872217 0.272482
vt 0.813151 0.474518
vt 0.749741 0.500251
vt 0.749825 0.411130
vt 0.841591 0.414453
vt 0.749905 0.274647
vt 0.750182 0.185665
vt 0.847354 0.179328
vt 0.750392 0.105225
vt 0.812997 0.125531
vt 0.857391 0.172876
vt 0.868566 0.167555
vt 0.884619 0.271787
vt 0.878700 0.164997
vt 0.895232 0.271936
vt 0.818443 0.115872
vt 0.824829 0.106345
vt 0.831642 0.098751
vt 0.750406 0.094132
vt 0.750421 0.082635
vt 0.750436 0.072026
vt 0.820419 0.484121
vt 0.870096 0.407496
vt 0.828116 0.493474
vt 0.880432 0.409273
vt 0.836091 0.500604
vt 0.749719 0.511722
vt 0.749697 0.523814
vt 0.749677 0.535230
vt 0.749840 0.395750
vt 0.749865 0.375767
s 1
f 57/1/1 23/2/2 31/3/3 10/4/4
f 23/2/2 4/5/5 14/6/6 31/3/3
f 31/3/3 14/6/6 5/7/7 24/8/8
f 10/4/4 31/3/3 24/8/8 2/9/9
f 4/5/5 23/2/2 32/10/10 17/11/11
f 23/2/2 57/1/1 8/12/12 32/10/10
f 32/10/10 8/12/12 1/13/13 22/14/14
f 17/11/11 32/10/10 22/14/14 3/15/15
f 63/16/16 57/1/1 10/4/4 33/17/17
f 33/17/17 10/4/4 2/9/9 9/18/18
f 34/19/19 9/18/18 2/9/9 24/8/8
f 15/20/20 34/19/19 24/8/8 5/7/7
f 3/15/15 22/14/14 35/21/21 20/22/22
f 22/14/14 1/13/13 61/23/23 35/21/21
f 43/24/24 11/25/25 36/26/26 12/27/27
f 11/25/25 44/28/28 13/29/29 36/26/26
f 36/26/26 13/29/29 5/7/7 14/6/6
f 12/27/27 36/26/26 14/6/6 4/5/5
f 15/20/20 5/7/7 13/29/29 37/30/30
f 37/30/30 13/29/29 44/28/28 16/31/31
f 4/5/5 17/11/11 38/32/32 12/27/27
f 17/11/11 3/15/15 18/33/33 38/32/32
f 38/32/32 18/33/33 42/34/34 19/35/35
f 12/27/27 38/32/32 19/35/35 43/24/24
f 3/15/15 20/22/22 39/36/36 18/33/33
f 18/33/33 39/36/36 21/37/37 42/34/34
f 6/38/38 25/39/39 54/40/40 28/41/41
f 25/39/39 7/42/42 29/43/43 54/40/40
f 7/42/42 26/44/44 40/45/45 29/43/43
f 27/46/46 6/38/38 28/41/41 41/47/47
f 7/42/42 25/39/39 30/48/48
f 6/38/38 30/49/48 25/39/39
f 6/38/38 27/46/46 30/50/48
f 7/42/42 30/51/48 26/44/44
f 29/43/43 40/45/45 50/52/49 49/53/50
f 49/53/50 50/52/49 51/54/51 48/55/52
f 48/55/52 51/54/51 60/56/53 47/57/54
f 41/47/47 28/41/41 45/58/55 52/59/56
f 52/59/56 45/58/55 46/60/57 53/61/58
f 53/61/58 46/60/57 58/62/59 62/63/60
f 28/41/41 54/40/40 55/64/61 45/58/55
f 45/58/55 55/64/61 56/65/62 46/60/57
f 46/60/57 56/65/62 59/66/63 58/62/59
f 54/40/40 29/43/43 49/53/50 55/64/61
f 55/64/61 49/53/50 48/55/52 56/65/62
f 56/65/62 48/55/52 47/57/54 59/66/63
f 8/12/12 59/66/63 47/57/54 1/13/13
f 60/56/53 61/23/23 1/13/13 47/57/54
f 62/63/64 58/62/65 57/1/1 63/16/16
f 8/12/12 57/1/1 58/62/65 59/66/63
f 101/1/66 72/4/67 86/3/68 81/2/69
f 81/2/69 86/3/68 76/6/70 67/5/71
f 86/3/68 82/8/72 68/7/73 76/6/70
f 72/4/67 65/9/74 82/8/72 86/3/68
f 67/5/71 77/11/75 87/10/76 81/2/69
f 81/2/69 87/10/76 71/12/77 101/1/66
f 87/10/76 80/14/78 64/13/79 71/12/77
f 77/11/75 66/15/80 80/14/78 87/10/76
f 63/16/16 33/17/17 72/4/67 101/1/66
f 33/17/17 9/18/18 65/9/74 72/4/67
f 34/19/19 82/8/72 65/9/74 9/18/18
f 15/20/20 68/7/73 82/8/72 34/19/19
f 66/15/80 20/22/22 35/21/21 80/14/78
f 80/14/78 35/21/21 61/23/23 64/13/79
f 91/24/81 74/27/82 88/26/83 73/25/84
f 73/25/84 88/26/83 75/29/85 92/28/86
f 88/26/83 76/6/70 68/7/73 75/29/85
f 74/27/82 67/5/71 76/6/70 88/26/83
f 15/20/20 37/30/30 75/29/85 68/7/73
f 37/30/30 16/31/31 92/28/86 75/29/85
f 67/5/71 74/27/82 89/32/87 77/11/75
f 77/11/75 89/32/87 78/33/88 66/15/80
f 89/32/87 79/35/89 90/34/90 78/33/88
f 74/27/82 91/24/81 79/35/89 89/32/87
f 66/15/80 78/33/88 39/36/36 20/22/22
f 78/33/88 90/34/90 21/37/37 39/36/36
f 69/38/91 84/41/92 98/40/93 83/39/94
f 83/39/94 98/40/93 85/43/95 70/42/96
f 70/42/96 85/43/95 40/45/45 26/44/44
f 27/46/46 41/47/47 84/41/92 69/38/91
f 70/42/96 30/48/48 83/39/94
f 69/38/91 83/39/94 30/49/48
f 69/38/91 30/50/48 27/46/46
f 70/42/96 26/44/44 30/51/48
f 85/43/95 97/53/97 50/52/49 40/45/45
f 97/53/97 96/55/98 51/54/51 50/52/49
f 96/55/98 95/57/99 60/56/53 51/54/51
f 41/47/47 52/59/56 93/58/100 84/41/92
f 52/59/56 53/61/58 94/60/101 93/58/100
f 53/61/58 62/63/60 102/62/102 94/60/101
f 84/41/92 93/58/100 99/64/103 98/40/93
f 93/58/100 94/60/101 100/65/104 99/64/103
f 94/60/101 102/62/102 103/66/105 100/65/104
f 98/40/93 99/64/103 97/53/97 85/43/95
f 99/64/103 100/65/104 96/55/98 97/53/97
f 100/65/104 103/66/105 95/57/99 96/55/98
f 71/12/77 64/13/79 95/57/99 103/66/105
f 60/56/53 95/57/99 64/13/79 61/23/23
f 62/63/64 63/16/16 101/1/66 102/62/106
f 71/12/77 103/66/105 102/62/106 101/1/66
f 129/67/107 137/68/108 104/69/109 119/70/110
f 105/71/111 106/72/111 133/73/111 136/74/111
f 104/69/111 107/75/111 113/76/111 124/77/111
f 124/77/111 113/76/111 108/78/111 120/79/111
f 104/69/109 124/77/112 125/80/113 119/70/110
f 119/70/110 125/80/113 126/81/114 118/82/115
f 118/82/115 126/81/114 109/83/116 117/84/117
f 124/77/112 120/79/118 122/85/119 125/80/113
f 125/80/113 122/85/119 123/86/120 126/81/114
f 126/81/114 123/86/120 121/87/121 109/83/116
f 120/79/118 108/78/122 127/88/123 122/85/119
f 122/85/119 127/88/123 128/89/124 123/86/120
f 123/86/120 128/89/124 110/90/125 121/87/121
f 116/91/126 129/67/107 130/92/127 115/93/128
f 115/93/128 130/92/127 111/94/129 114/95/130
f 105/71/131 136/74/132 129/67/107 116/91/126
f 129/67/107 119/70/110 118/82/115 130/92/127
f 130/92/127 118/82/115 117/84/117 111/94/129
f 106/72/133 105/71/131 116/91/126 131/96/134
f 131/96/134 116/91/126 115/93/128 132/97/135
f 132/97/135 115/93/128 114/95/130 112/98/136
f 136/74/137 133/73/138 135/99/139 129/67/137
f 129/67/140 135/99/141 134/100/142 137/68/140
f 137/68/111 134/100/111 107/75/111 104/69/111
f 155/67/143 147/70/144 138/69/145 158/68/146
f 139/71/111 157/74/111 133/73/111 106/72/111
f 138/69/111 152/77/111 113/76/111 107/75/111
f 152/77/111 148/79/111 108/78/111 113/76/111
f 138/69/145 147/70/144 153/80/147 152/77/148
f 147/70/144 146/82/149 154/81/150 153/80/147
f 146/82/149 145/84/151 140/83/152 154/81/150
f 152/77/148 153/80/147 150/85/153 148/79/154
f 153/80/147 154/81/150 151/86/155 150/85/153
f 154/81/150 140/83/152 149/87/156 151/86/155
f 148/79/154 150/85/153 127/88/123 108/78/122
f 150/85/153 151/86/155 128/89/124 127/88/123
f 151/86/155 149/87/156 110/90/125 128/89/124
f 144/91/157 143/93/158 156/92/159 155/67/143
f 143/93/158 142/95/160 141/94/161 156/92/159
f 139/71/162 144/91/157 155/67/143 157/74/163
f 155/67/143 156/92/159 146/82/149 147/70/144
f 156/92/159 141/94/161 145/84/151 146/82/149
f 106/72/133 131/96/134 144/91/157 139/71/162
f 131/96/134 132/97/135 143/93/158 144/91/157
f 132/97/135 112/98/136 142/95/160 143/93/158
f 157/74/164 155/67/164 135/99/139 133/73/138
f 155/67/165 158/68/165 134/100/142 135/99/141
f 158/68/111 138/69/111 107/75/111 134/100/111
