# Blender 4.0.2
# www.blender.org
o Eyebrows
v 0.000000 0.114805 -0.277164
v 0.000000 0.212132 -0.212132
v 0.000000 0.277164 -0.114805
v 0.117682 0.117682 -0.249603
v 0.196876 0.111711 -0.196876
v 0.202696 0.161853 -0.161853
v 0.196876 0.196876 -0.111711
v 0.117682 0.249603 -0.117682
v 0.111711 0.196876 -0.196876
v -0.117682 0.117682 -0.249603
v -0.196876 0.111711 -0.196876
v -0.202696 0.161853 -0.161853
v -0.196876 0.196876 -0.111711
v -0.117682 0.249603 -0.117682
v -0.111711 0.196876 -0.196876
vn -0.0000 0.5593 -0.8290
vn -0.0000 0.7071 -0.7071
vn 0.3332 0.6667 -0.6667
vn 0.3255 0.5299 -0.7831
vn 0.4965 0.6138 -0.6138
vn 0.4899 0.4899 -0.7212
vn -0.0000 0.8290 -0.5593
vn 0.3255 0.7831 -0.5299
vn 0.4899 0.7212 -0.4899
vn -0.3255 0.5299 -0.7831
vn -0.3332 0.6667 -0.6667
vn -0.4899 0.4899 -0.7212
vn -0.4965 0.6138 -0.6138
vn -0.3255 0.7831 -0.5299
vn -0.4899 0.7212 -0.4899
vt 0.967838 -0.003761
vt 0.985916 0.496419
vt 0.503653 0.492509
vt 0.459526 0.090361
vt 0.064149 0.488945
vt 0.068467 0.222659
vt 0.959730 0.996239
vt 0.453011 0.893888
vt 0.064149 0.755266
s 1
f 1/1/1 2/2/2 9/3/3 4/4/4
f 4/4/4 9/3/3 6/5/5 5/6/6
f 3/7/7 8/8/8 9/3/3 2/2/2
f 8/8/8 7/9/9 6/5/5 9/3/3
f 1/1/1 10/4/10 15/3/11 2/2/2
f 10/4/10 11/6/12 12/5/13 15/3/11
f 3/7/7 2/2/2 15/3/11 14/8/14
f 14/8/14 15/3/11 12/5/13 13/9/15
