# Blender 4.0.2
# www.blender.org
o Eyes
v 0.000000 0.114805 -0.277164
v 0.000000 0.212132 -0.212132
v 0.117682 0.117682 -0.249603
v 0.196876 0.111711 -0.196876
v 0.173205 0.173205 -0.173205
v 0.111711 0.196876 -0.196876
v 0.000000 0.000000 -0.300000
v 0.114805 0.000000 -0.277164
v 0.212132 0.000000 -0.212132
v -0.117682 0.117682 -0.249603
v -0.196876 0.111711 -0.196876
v -0.173205 0.173205 -0.173205
v -0.111711 0.196876 -0.196876
v -0.114805 0.000000 -0.277164
v -0.212132 0.000000 -0.212132
vn -0.0000 0.2094 -0.9778
vn -0.0000 0.3793 -0.9253
vn 0.3673 0.3673 -0.8545
vn 0.3719 0.1977 -0.9070
vn 0.5311 0.3295 -0.7806
vn 0.5500 0.1818 -0.8152
vn -0.0000 0.5593 -0.8290
vn 0.3295 0.5311 -0.7806
vn 0.4931 0.4931 -0.7167
vn -0.3719 0.1977 -0.9070
vn -0.3673 0.3673 -0.8545
vn -0.5500 0.1818 -0.8152
vn -0.5311 0.3295 -0.7806
vn -0.3295 0.5311 -0.7806
vn -0.4931 0.4931 -0.7167
vt 0.997206 0.000100
vt 0.997206 0.498668
vt 0.488748 0.528292
vt 0.498999 0.019075
vt 0.090376 0.569842
vt 0.000100 0.089877
vt 0.945444 0.999900
vt 0.462391 0.927957
vt 0.168966 0.860487
s 1
f 7/1/1 1/2/2 3/3/3 8/4/4
f 8/4/4 3/3/3 4/5/5 9/6/6
f 1/2/2 2/7/7 6/8/8 3/3/3
f 3/3/3 6/8/8 5/9/9 4/5/5
f 7/1/1 14/4/10 10/3/11 1/2/2
f 14/4/10 15/6/12 11/5/13 10/3/11
f 1/2/2 10/3/11 13/8/14 2/7/7
f 10/3/11 11/5/13 12/9/15 13/8/14
