# Blender 4.0.2
# www.blender.org
o Mouth
v 0.000000 -0.114805 -0.277164
v 0.000000 -0.212132 -0.212132
v 0.117682 -0.117682 -0.249603
v 0.196876 -0.111711 -0.196876
v 0.173205 -0.173205 -0.173205
v 0.111711 -0.196876 -0.196876
v 0.000000 0.000000 -0.300000
v 0.114805 0.000000 -0.277164
v 0.212132 0.000000 -0.212132
v -0.117682 -0.117682 -0.249603
v -0.196876 -0.111711 -0.196876
v -0.173205 -0.173205 -0.173205
v -0.111711 -0.196876 -0.196876
v -0.114805 0.000000 -0.277164
v -0.212132 0.000000 -0.212132
vn -0.0000 -0.2094 -0.9778
vn 0.3719 -0.1977 -0.9070
vn 0.3673 -0.3673 -0.8545
vn -0.0000 -0.3793 -0.9253
vn 0.5500 -0.1818 -0.8152
vn 0.5311 -0.3295 -0.7806
vn 0.3295 -0.5311 -0.7806
vn -0.0000 -0.5593 -0.8290
vn 0.4931 -0.4931 -0.7167
vn -0.3673 -0.3673 -0.8545
vn -0.3719 -0.1977 -0.9070
vn -0.5311 -0.3295 -0.7806
vn -0.5500 -0.1818 -0.8152
vn -0.3295 -0.5311 -0.7806
vn -0.4931 -0.4931 -0.7167
vt 0.500000 0.750854
vt 0.229402 0.750854
vt 0.222620 0.473474
vt 0.500000 0.480256
vt 0.000000 0.750854
vt 0.035958 0.487548
vt 0.236694 0.286812
vt 0.500000 0.250854
vt 0.091752 0.342605
vt 0.777380 0.473474
vt 0.770598 0.750854
vt 0.964042 0.487548
vt 1.000000 0.750854
vt 0.763306 0.286812
vt 0.908248 0.342605
s 1
f 7/1/1 8/2/2 3/3/3 1/4/4
f 8/2/2 9/5/5 4/6/6 3/3/3
f 1/4/4 3/3/3 6/7/7 2/8/8
f 3/3/3 4/6/6 5/9/9 6/7/7
f 7/1/1 1/4/4 10/10/10 14/11/11
f 14/11/11 10/10/10 11/12/12 15/13/13
f 1/4/4 2/8/8 13/14/14 10/10/10
f 10/10/10 13/14/14 12/15/15 11/12/12
