<?xml version="1.0" encoding="UTF-8" standalone="no"?>
<svg
   viewBox="0 0 24 24"
   version="1.1"
   id="svg2"
   sodipodi:docname="add-fill.svg"
   inkscape:version="1.3.2 (091e20ef0f, 2023-11-25)"
   xmlns:inkscape="http://www.inkscape.org/namespaces/inkscape"
   xmlns:sodipodi="http://sodipodi.sourceforge.net/DTD/sodipodi-0.dtd"
   xmlns="http://www.w3.org/2000/svg"
   xmlns:svg="http://www.w3.org/2000/svg">
  <defs
     id="defs2" />
  <sodipodi:namedview
     id="namedview2"
     pagecolor="#505050"
     bordercolor="#ffffff"
     borderopacity="1"
     inkscape:showpageshadow="0"
     inkscape:pageopacity="0"
     inkscape:pagecheckerboard="1"
     inkscape:deskcolor="#d1d1d1"
     inkscape:zoom="34.117902"
     inkscape:cx="11.313708"
     inkscape:cy="11.372329"
     inkscape:window-width="3440"
     inkscape:window-height="1356"
     inkscape:window-x="0"
     inkscape:window-y="0"
     inkscape:window-maximized="1"
     inkscape:current-layer="g2"
     showgrid="false" />
  <g
     id="g2">
    <path
       id="path3"
       style="color:#000000;fill:#ffffff;stroke:#cccccc;stroke-width:1;stroke-linejoin:round;stroke-opacity:1;stroke-dasharray:none"
       d="M 10.5,0.75 A 0.750075,0.750075 0 0 0 9.75,1.5 V 9.75 H 1.5 A 0.750075,0.750075 0 0 0 0.75,10.5 v 3 a 0.750075,0.750075 0 0 0 0.75,0.75 h 8.25 v 8.25 a 0.750075,0.750075 0 0 0 0.75,0.75 h 3 a 0.750075,0.750075 0 0 0 0.75,-0.75 v -8.25 h 8.25 a 0.750075,0.750075 0 0 0 0.75,-0.75 v -3 A 0.750075,0.750075 0 0 0 22.5,9.75 H 14.25 V 1.5 A 0.750075,0.750075 0 0 0 13.5,0.75 Z" />
  </g>
</svg>
