<?xml version="1.0" encoding="UTF-8" standalone="no"?>
<svg
   viewBox="0 0 24 24"
   version="1.1"
   id="svg2"
   sodipodi:docname="arrow-go-back-fill.svg"
   inkscape:version="1.3.2 (091e20ef0f, 2023-11-25)"
   xmlns:inkscape="http://www.inkscape.org/namespaces/inkscape"
   xmlns:sodipodi="http://sodipodi.sourceforge.net/DTD/sodipodi-0.dtd"
   xmlns="http://www.w3.org/2000/svg"
   xmlns:svg="http://www.w3.org/2000/svg">
  <defs
     id="defs2" />
  <sodipodi:namedview
     id="namedview2"
     pagecolor="#505050"
     bordercolor="#ffffff"
     borderopacity="1"
     inkscape:showpageshadow="0"
     inkscape:pageopacity="0"
     inkscape:pagecheckerboard="1"
     inkscape:deskcolor="#d1d1d1"
     inkscape:zoom="48.25"
     inkscape:cx="10.072539"
     inkscape:cy="12.145078"
     inkscape:window-width="3440"
     inkscape:window-height="1356"
     inkscape:window-x="0"
     inkscape:window-y="0"
     inkscape:window-maximized="1"
     inkscape:current-layer="g2" />
  <g
     id="g2">
    <path
       id="path3"
       style="color:#000000;fill:#ffffff;stroke:#cccccc;stroke-width:1;stroke-linejoin:round;stroke-opacity:1;stroke-dasharray:none"
       d="M 7.9235997,0.00487315 A 0.57147597,0.57147597 0 0 0 7.6311939,0.1321031 L 0.77416793,5.8462914 a 0.57147597,0.57147597 0 0 0 0,0.8794492 L 7.6311939,12.43993 a 0.57147597,0.57147597 0 0 0 0.937484,-0.439725 V 8.0002725 h 5.1427691 c 3.47821,0 6.285608,2.8074005 6.285608,6.2856075 0,3.478207 -2.807398,6.285607 -6.285608,6.285607 H 3.4259084 a 0.57147597,0.57147597 0 0 0 -0.5714188,0.571419 v 2.285675 A 0.57147597,0.57147597 0 0 0 3.4259084,24 H 13.711447 c 5.358184,0 9.714121,-4.355939 9.714121,-9.71412 0,-5.3581811 -4.355937,-9.7141205 -9.714121,-9.7141205 H 8.5686779 V 0.57182772 A 0.57147597,0.57147597 0 0 0 8.2405585,0.0539794 0.57147597,0.57147597 0 0 0 7.9235997,0.00487315 Z" />
  </g>
</svg>
