# Blender 3.6.4
# www.blender.org
mtllib Building_Top.mtl
o Grass_Top
v 0.500000 -0.100000 -0.400000 1.0000 0.0000 0.0000
v 0.400000 -0.000000 -0.400000 1.0000 0.0000 0.0000
v 0.400000 -0.100000 -0.500000 1.0000 0.0000 0.0000
v 0.470711 -0.029289 -0.400000 1.0000 0.0000 0.0000
v 0.457735 -0.042265 -0.457735 1.0000 0.0000 0.0000
v 0.400000 -0.029289 -0.470711 1.0000 0.0000 0.0000
v 0.470711 -0.100000 -0.470711 1.0000 0.0000 0.0000
v 0.500000 -0.100000 0.400000 1.0000 0.0000 0.0000
v 0.400000 -0.100000 0.500000 1.0000 0.0000 0.0000
v 0.400000 0.000000 0.400000 1.0000 0.0000 0.0000
v 0.470711 -0.100000 0.470711 1.0000 0.0000 0.0000
v 0.457735 -0.042265 0.457735 1.0000 0.0000 0.0000
v 0.400000 -0.029289 0.470711 1.0000 0.0000 0.0000
v 0.470711 -0.029289 0.400000 1.0000 0.0000 0.0000
v -0.400000 -0.100000 -0.500000 1.0000 0.0000 0.0000
v -0.400000 -0.000000 -0.400000 1.0000 0.0000 0.0000
v -0.500000 -0.100000 -0.400000 1.0000 0.0000 0.0000
v -0.400000 -0.029289 -0.470711 1.0000 0.0000 0.0000
v -0.457735 -0.042265 -0.457735 1.0000 0.0000 0.0000
v -0.470711 -0.029289 -0.400000 1.0000 0.0000 0.0000
v -0.470711 -0.100000 -0.470711 1.0000 0.0000 0.0000
v -0.500000 -0.100000 0.400000 1.0000 0.0000 0.0000
v -0.400000 0.000000 0.400000 1.0000 0.0000 0.0000
v -0.400000 -0.100000 0.500000 1.0000 0.0000 0.0000
v -0.470711 -0.029289 0.400000 1.0000 0.0000 0.0000
v -0.457735 -0.042265 0.457735 1.0000 0.0000 0.0000
v -0.400000 -0.029289 0.470711 1.0000 0.0000 0.0000
v -0.470711 -0.100000 0.470711 1.0000 0.0000 0.0000
v 0.470711 -1.000000 0.470711 0.0000 1.0000 0.0000
v 0.500000 -1.000000 -0.400000 0.0000 1.0000 0.0000
v 0.470711 -1.000000 -0.470711 0.0000 1.0000 0.0000
v -0.470711 -1.000000 0.470711 0.0000 1.0000 0.0000
v 0.500000 -0.210000 0.400000 0.0000 1.0000 0.0000
v 0.521991 -0.267129 0.417593 1.0000 0.0000 0.0000
v 0.488857 -0.246492 0.488857 1.0000 0.0000 0.0000
v 0.470711 -0.210000 0.470711 0.0000 1.0000 0.0000
v 0.400000 -0.210000 0.500000 0.0000 1.0000 0.0000
v 0.420000 -0.290000 0.525000 1.0000 0.0000 0.0000
v -0.500000 -0.210000 0.400000 0.0000 1.0000 0.0000
v -0.521396 -0.262610 0.417117 1.0000 0.0000 0.0000
v -0.470711 -0.210000 0.470711 0.0000 1.0000 0.0000
v -0.486854 -0.230324 0.486854 1.0000 0.0000 0.0000
v -0.420000 -0.290000 0.525000 1.0000 0.0000 0.0000
v -0.400000 -0.210000 0.500000 0.0000 1.0000 0.0000
v -0.521752 -0.265315 -0.417402 1.0000 0.0000 0.0000
v -0.500000 -0.210000 -0.400000 0.0000 1.0000 0.0000
v -0.488494 -0.243560 -0.488494 1.0000 0.0000 0.0000
v -0.470711 -0.210000 -0.470711 0.0000 1.0000 0.0000
v -0.400000 -0.210000 -0.500000 0.0000 1.0000 0.0000
v -0.417773 -0.268842 -0.522216 1.0000 0.0000 0.0000
v 0.523165 -0.276057 -0.418532 1.0000 0.0000 0.0000
v 0.500000 -0.210000 -0.400000 0.0000 1.0000 0.0000
v 0.470711 -0.210000 -0.470711 0.0000 1.0000 0.0000
v 0.490179 -0.257166 -0.490179 1.0000 0.0000 0.0000
v 0.420000 -0.290000 -0.525000 1.0000 0.0000 0.0000
v 0.400000 -0.210000 -0.500000 0.0000 1.0000 0.0000
v 0.400000 0.000000 0.000000 1.0000 0.0000 0.0000
v 0.470711 -0.029289 0.000000 1.0000 0.0000 0.0000
v 0.500000 -0.100000 0.000000 1.0000 0.0000 0.0000
v 0.000000 -0.000000 -0.400000 1.0000 0.0000 0.0000
v 0.000000 -0.029289 -0.470711 1.0000 0.0000 0.0000
v 0.000000 -0.100000 -0.500000 1.0000 0.0000 0.0000
v -0.400000 0.000000 0.000000 1.0000 0.0000 0.0000
v -0.470711 -0.029289 0.000000 1.0000 0.0000 0.0000
v -0.500000 -0.100000 0.000000 1.0000 0.0000 0.0000
v 0.000000 0.000000 0.400000 1.0000 0.0000 0.0000
v 0.000000 -0.029289 0.470711 1.0000 0.0000 0.0000
v 0.000000 -0.100000 0.500000 1.0000 0.0000 0.0000
v 0.518300 -0.239080 0.076860 1.0000 0.0000 0.0000
v 0.139837 -0.226520 0.516647 1.0000 0.0000 0.0000
v -0.518104 -0.237588 -0.078353 1.0000 0.0000 0.0000
v -0.152593 -0.238060 -0.518166 1.0000 0.0000 0.0000
v 0.000000 0.000000 0.000000 1.0000 0.0000 0.0000
v 0.400000 -1.000000 -0.500000 0.0000 1.0000 0.0000
v -0.500000 -1.000000 -0.400000 0.0000 1.0000 0.0000
v -0.500000 -1.000000 0.400000 0.0000 1.0000 0.0000
v 0.500000 -1.000000 0.400000 0.0000 1.0000 0.0000
v -0.400000 -1.000000 -0.500000 0.0000 1.0000 0.0000
v -0.470711 -1.000000 -0.470711 0.0000 1.0000 0.0000
v -0.400000 -1.000000 0.500000 0.0000 1.0000 0.0000
v 0.400000 -1.000000 0.500000 0.0000 1.0000 0.0000
vn -0.0000 1.0000 -0.0000
vn 0.1951 0.9808 -0.0000
vn 0.1794 0.9673 -0.1794
vn -0.0000 0.9808 -0.1951
vn 0.9524 0.2520 -0.1716
vn 0.6830 0.2588 -0.6830
vn 0.5774 0.5774 -0.5774
vn 0.6965 0.6965 -0.1726
vn 0.1726 0.6965 -0.6965
vn 0.1716 0.2520 -0.9524
vn 0.9524 0.2520 0.1716
vn 0.6965 0.6965 0.1726
vn 0.5774 0.5774 0.5774
vn 0.6830 0.2588 0.6830
vn 0.1716 0.2520 0.9524
vn 0.1726 0.6965 0.6965
vn 0.1794 0.9673 0.1794
vn -0.1716 0.2520 -0.9524
vn -0.6830 0.2588 -0.6830
vn -0.5774 0.5774 -0.5774
vn -0.1726 0.6965 -0.6965
vn -0.1794 0.9673 -0.1794
vn -0.6965 0.6965 -0.1726
vn -0.9524 0.2520 -0.1716
vn -0.9524 0.2520 0.1716
vn -0.6830 0.2588 0.6830
vn -0.5774 0.5774 0.5774
vn -0.6965 0.6965 0.1726
vn -0.1794 0.9673 0.1794
vn -0.1726 0.6965 0.6965
vn -0.1716 0.2520 0.9524
vn 0.7071 0.7071 -0.0000
vn 0.9659 0.2588 -0.0000
vn -0.0000 0.7071 -0.7071
vn -0.0000 0.2588 -0.9659
vn -0.1951 0.9808 -0.0000
vn -0.7071 0.7071 -0.0000
vn -0.9659 0.2588 -0.0000
vn -0.0000 0.9808 0.1951
vn -0.0000 0.7071 0.7071
vn -0.0000 0.2588 0.9659
vn -0.7071 -0.0000 -0.7071
vn -0.9808 -0.0000 -0.1951
vn 0.7071 -0.0000 -0.7071
vn 0.1951 -0.0000 -0.9808
vn -0.1951 -0.0000 -0.9808
vn -0.9808 -0.0000 0.1951
vn -0.7071 -0.0000 0.7071
vn 0.1808 0.1470 0.9725
vn 0.6766 0.1725 0.7158
vn 0.6834 0.1725 -0.7094
vn 0.1806 0.1470 -0.9725
vn -0.0000 0.1305 -0.9915
vn -0.1889 0.1476 -0.9708
vn -0.6931 0.1726 -0.6999
vn -0.9707 0.1477 -0.1896
vn -0.6771 0.1725 0.7154
vn -0.1585 0.1452 0.9766
vn -0.1951 -0.0000 0.9808
vn -0.0000 0.1305 0.9915
vn 0.9915 0.1305 -0.0000
vn 0.9703 0.1478 -0.1916
vn 0.1951 -0.0000 0.9808
vn 0.7071 -0.0000 0.7071
vn 0.9808 -0.0000 0.1951
vn 0.9808 -0.0000 -0.1951
vn -0.9915 0.1305 -0.0000
vn -0.9730 0.1468 0.1781
vn 0.9705 0.1478 0.1906
vt -0.000000 0.000000
vt -15.748033 0.000000
vt -15.748033 -15.748033
vt 0.000000 -15.748033
vt -19.685043 -15.748033
vt -19.685040 -19.685040
vt -19.130383 -19.130383
vt -19.685040 -15.748032
vt -15.748032 -19.685040
vt -15.748034 -19.685040
vt -19.685040 15.748034
vt -19.685040 15.748033
vt -19.130383 19.130383
vt -19.685040 19.685040
vt -15.748033 19.685040
vt -15.748032 19.685040
vt -15.748033 15.748033
vt 15.748033 -19.685040
vt 19.685040 -19.685040
vt 19.130383 -19.130383
vt 15.748032 -19.685040
vt 15.748033 -15.748033
vt 19.685040 -15.748032
vt 19.685040 -15.748034
vt 19.685040 15.748033
vt 19.685040 19.685040
vt 19.130383 19.130383
vt 19.685040 15.748032
vt 15.748031 15.748033
vt 15.748032 19.685040
vt 15.748034 19.685040
vt -19.685040 0.000000
vt -19.685041 0.000000
vt 0.000000 -19.685040
vt 15.748032 0.000000
vt 19.685040 0.000000
vt -0.000001 15.748033
vt 0.000000 19.685040
vt -15.748033 -19.685040
vt 19.685040 15.748034
vt -0.000001 -19.685040
vt 15.748033 19.685040
vt 0.000001 19.685040
vt -19.685041 -15.748034
vt -19.685040 -15.748034
s 1
usemtl RGB_Vertex.002
f 73/1/1 57/2/2 2/3/3 60/4/4
f 1/5/5 7/6/6 5/7/7 4/8/8
f 2/3/3 4/8/8 5/7/7 6/9/9
f 3/10/10 6/9/9 5/7/7 7/6/6
f 8/11/11 14/12/12 12/13/13 11/14/14
f 9/15/15 11/14/14 12/13/13 13/16/16
f 10/17/17 13/16/16 12/13/13 14/12/12
f 15/18/18 21/19/19 19/20/20 18/21/21
f 16/22/22 18/21/21 19/20/20 20/23/23
f 17/24/24 20/23/23 19/20/20 21/19/19
f 22/25/25 28/26/26 26/27/27 25/28/28
f 23/29/29 25/28/28 26/27/27 27/30/30
f 24/31/31 27/30/30 26/27/27 28/26/26
f 57/2/2 58/32/32 4/8/8 2/3/3
f 58/32/32 59/33/33 1/5/5 4/8/8
f 60/4/4 61/34/34 18/21/21 16/22/22
f 61/34/34 62/34/35 15/18/18 18/21/21
f 63/35/36 64/36/37 25/28/28 23/29/29
f 64/36/37 65/36/38 22/25/25 25/28/28
f 66/37/39 67/38/40 13/16/16 10/17/17
f 67/38/40 68/38/41 9/15/15 13/16/16
f 11/14/14 9/15/15 38/16/49 35/14/50
f 54/6/51 55/10/52 3/10/10 7/6/6
f 62/34/35 72/41/53 50/21/54 15/18/18
f 21/19/19 15/18/18 50/21/54 47/19/55
f 17/24/24 21/19/19 47/19/55 45/24/56
f 42/26/57 43/31/58 24/31/31 28/26/26
f 68/38/41 70/43/60 38/16/49 9/15/15
f 59/33/33 69/32/61 51/44/62 1/5/5
f 65/36/38 71/36/67 40/40/68 22/25/25
f 40/40/68 42/26/57 28/26/26 22/25/25
f 51/44/62 54/6/51 7/6/6 1/5/5
f 14/12/12 8/11/11 59/33/33 58/32/32
f 6/9/9 3/10/10 62/34/35 61/34/34
f 10/17/17 14/12/12 58/32/32 57/2/2
f 23/29/29 27/30/30 67/38/40 66/37/39
f 20/23/23 17/24/24 65/36/38 64/36/37
f 24/31/31 43/31/58 70/43/60 68/38/41
f 3/10/10 55/10/52 72/41/53 62/34/35
f 17/24/24 45/24/56 71/36/67 65/36/38
f 2/3/3 6/9/9 61/34/34 60/4/4
f 8/11/11 34/11/69 69/32/61 59/33/33
f 27/30/30 24/31/31 68/38/41 67/38/40
f 16/22/22 20/23/23 64/36/37 63/35/36
f 8/11/11 11/14/14 35/14/50 34/11/69
f 63/35/36 73/1/1 60/4/4 16/22/22
f 23/29/29 66/37/39 73/1/1 63/35/36
f 66/37/39 10/17/17 57/2/2 73/1/1
usemtl RGB_Vertex
f 79/19/42 75/24/43 46/24/43 48/19/42
f 31/6/44 74/39/45 56/10/45 53/6/44
f 78/21/46 79/19/42 48/19/42 49/21/46
f 76/40/47 32/26/48 41/26/48 39/40/47
f 75/24/43 76/40/47 39/40/47 46/24/43
f 74/39/45 78/21/46 49/21/46 56/10/45
f 32/26/48 80/42/59 44/31/59 41/26/48
f 81/16/63 29/14/64 36/14/64 37/16/63
f 77/11/65 30/45/66 52/44/66 33/11/65
f 80/42/59 81/16/63 37/16/63 44/31/59
f 36/14/64 29/14/64 77/11/65 33/11/65
f 30/45/66 31/6/44 53/6/44 52/44/66
