# Blender 3.6.2
# www.blender.org
mtllib Building.mtl
o default
v 0.500000 -0.800000 -0.500000 0.0000 0.0000 1.0000
v 0.500000 -0.800000 0.500000 0.0000 0.0000 1.0000
v 0.535355 -0.840000 0.535354 0.0000 0.0000 1.0000
v 0.535355 -0.840000 -0.535356 0.0000 0.0000 1.0000
v -0.500000 0.000000 -0.500000 1.0000 0.0000 0.0000
v -0.500000 -0.000000 0.500000 1.0000 0.0000 0.0000
v 0.500000 -0.000000 0.500000 1.0000 0.0000 0.0000
v 0.500000 0.000000 -0.500000 1.0000 0.0000 0.0000
v 0.535355 -1.000000 -0.535356 0.0000 0.0000 1.0000
v 0.535355 -1.000000 0.535354 0.0000 0.0000 1.0000
v -0.535355 -1.000000 0.535354 0.0000 0.0000 1.0000
v -0.535355 -1.000000 -0.535356 0.0000 0.0000 1.0000
v -0.500000 -0.800000 0.500000 0.0000 0.0000 1.0000
v -0.535355 -0.840000 0.535354 0.0000 0.0000 1.0000
v 0.535355 -0.048000 0.485356 1.0000 0.0000 0.0000
v 0.535355 -0.048000 -0.485355 1.0000 0.0000 0.0000
v 0.535355 -0.160000 0.485356 1.0000 0.0000 0.0000
v 0.535355 -0.160000 -0.485355 1.0000 0.0000 0.0000
v 0.500000 -0.200000 0.500000 1.0000 0.0000 0.0000
v 0.500000 -0.200000 -0.500000 1.0000 0.0000 0.0000
v -0.485355 -0.048000 -0.535355 1.0000 0.0000 0.0000
v 0.485355 -0.048000 -0.535355 1.0000 0.0000 0.0000
v 0.485355 -0.160000 -0.535355 1.0000 0.0000 0.0000
v -0.485355 -0.160000 -0.535355 1.0000 0.0000 0.0000
v -0.500000 -0.200000 -0.500000 1.0000 0.0000 0.0000
v -0.500000 -0.200000 0.500000 1.0000 0.0000 0.0000
v -0.535355 -0.160000 0.485356 1.0000 0.0000 0.0000
v -0.535355 -0.160000 -0.485355 1.0000 0.0000 0.0000
v -0.535355 -0.048000 0.485356 1.0000 0.0000 0.0000
v -0.535355 -0.048000 -0.485355 1.0000 0.0000 0.0000
v -0.535355 -0.840000 -0.535356 0.0000 0.0000 1.0000
v 0.485355 -0.048000 0.535356 1.0000 0.0000 0.0000
v -0.485355 -0.048000 0.535356 1.0000 0.0000 0.0000
v -0.485355 -0.160000 0.535356 1.0000 0.0000 0.0000
v 0.485355 -0.160000 0.535356 1.0000 0.0000 0.0000
v -0.500000 -0.800000 -0.500000 0.0000 0.0000 1.0000
v 0.500000 -0.200000 0.500000 0.0000 1.0000 0.0000
v -0.500000 -0.200000 0.500000 0.0000 1.0000 0.0000
v -0.500000 -0.800000 0.500000 0.0000 1.0000 0.0000
v 0.500000 -0.800000 0.500000 0.0000 1.0000 0.0000
v -0.500000 -0.200000 -0.500000 0.0000 1.0000 0.0000
v 0.500000 -0.200000 -0.500000 0.0000 1.0000 0.0000
v 0.500000 -0.800000 -0.500000 0.0000 1.0000 0.0000
v -0.500000 -0.800000 -0.500000 0.0000 1.0000 0.0000
vn 0.7493 0.6623 -0.0000
vn -0.0000 1.0000 -0.0000
vn -0.0000 -1.0000 -0.0000
vn -0.0000 0.6623 0.7493
vn 0.8052 0.5931 -0.0000
vn 1.0000 -0.0000 -0.0000
vn 0.7493 -0.6623 -0.0000
vn -0.0000 -0.0000 -1.0000
vn -0.0000 -0.0000 1.0000
vn -0.0000 -0.6623 -0.7493
vn -0.7493 -0.6623 -0.0000
vn -1.0000 -0.0000 -0.0000
vn -0.7493 0.6623 -0.0000
vn -0.0000 0.6623 -0.7493
vn -0.0000 0.5931 0.8052
vn -0.0000 0.5931 -0.8052
vn -0.8052 0.5931 -0.0000
vn -0.6640 -0.3438 0.6640
vn 0.6640 -0.3438 -0.6640
vn -0.6640 -0.3438 -0.6640
vn 0.6640 -0.3438 0.6640
vn 0.6763 0.2918 0.6763
vn 0.6763 0.2918 -0.6763
vn -0.6763 0.2918 0.6763
vn -0.6763 0.2918 -0.6763
vn 0.7071 -0.0000 -0.7071
vn -0.7071 -0.0000 0.7071
vn 0.7071 -0.0000 0.7071
vn -0.7071 -0.0000 -0.7071
vn -0.0000 -0.6623 0.7493
vt 0.375000 0.700000
vt 0.625000 0.700000
vt 0.625000 0.710000
vt 0.375000 0.710000
vt 0.383255 0.258255
vt 0.616745 0.258255
vt 0.616745 0.491745
vt 0.383255 0.491745
vt 0.375000 0.750000
vt 0.625000 0.750000
vt 0.625000 1.000000
vt 0.375000 1.000000
vt 0.875000 0.700000
vt 0.875000 0.710000
vt 0.613325 0.515000
vt 0.386675 0.515000
vt 0.386674 0.515000
vt 0.613325 0.550000
vt 0.386675 0.550000
vt 0.625000 0.550000
vt 0.375000 0.550000
vt 0.386674 0.550000
vt 0.136674 0.515000
vt 0.363326 0.515000
vt 0.363326 0.550000
vt 0.136674 0.550000
vt 0.875000 0.750000
vt 0.125000 0.550000
vt 0.375000 0.200000
vt 0.625000 0.200000
vt 0.613325 0.200000
vt 0.386675 0.200000
vt 0.386674 0.200000
vt 0.613325 0.235000
vt 0.386675 0.235000
vt 0.125000 0.710000
vt 0.125000 0.750000
vt 0.636674 0.515000
vt 0.863326 0.515000
vt 0.863326 0.550000
vt 0.636674 0.550000
vt 0.375000 0.000000
vt 0.625000 0.000000
vt 0.625000 0.040000
vt 0.375000 0.040000
vt 0.625000 0.050000
vt 0.375000 0.050000
vt 0.125000 0.700000
vt 0.616897 0.257116
vt 0.625000 0.248075
vt 0.625000 0.501925
vt 0.375000 0.501925
vt 0.375000 0.248075
vt 0.386674 0.235000
vt 0.875000 0.550000
vt 0.621962 0.506443
vt 0.378038 0.506443
vt 0.621962 0.243557
vt 0.378038 0.243557
vt 0.875000 0.515000
vt 0.375000 0.235000
s 1
usemtl RGB_Vertex.001
f 1/1/1 2/2/1 3/3/1 4/4/1
f 5/5/2 6/6/2 7/7/2 8/8/2
f 9/9/3 10/10/3 11/11/3 12/12/3
f 2/2/4 13/13/4 14/14/4 3/3/4
f 8/8/5 7/7/5 15/15/5 16/16/5
f 16/17/6 15/15/6 17/18/6 18/19/6
f 19/20/7 20/21/7 18/22/7 17/18/7
f 21/23/8 22/24/8 23/25/8 24/26/8
f 3/3/9 14/14/9 11/27/9 10/10/9
f 20/21/10 25/28/10 24/26/10 23/25/10
f 25/29/11 26/30/11 27/31/11 28/32/11
f 4/4/6 3/3/6 10/10/6 9/9/6
f 28/33/12 27/31/12 29/34/12 30/35/12
f 31/36/8 4/4/8 9/9/8 12/37/8
f 32/38/9 33/39/9 34/40/9 35/41/9
f 12/42/12 11/43/12 14/44/12 31/45/12
f 13/46/13 36/47/13 31/45/13 14/44/13
f 36/48/14 1/1/14 4/4/14 31/36/14
f 7/7/15 6/49/15 33/50/15 32/51/15
f 5/5/16 8/8/16 22/52/16 21/53/16
f 6/6/17 5/5/17 30/54/17 29/34/17
f 34/40/18 27/55/18 26/55/18
f 23/25/19 18/21/19 20/21/19
f 28/32/20 24/29/20 25/29/20
f 17/18/21 35/20/21 19/20/21
f 32/51/22 15/56/22 7/7/22
f 16/16/23 22/57/23 8/8/23
f 29/58/24 33/50/24 6/49/24
f 21/59/25 30/54/25 5/5/25
f 23/25/26 22/24/26 16/17/26 18/19/26
f 34/40/27 33/39/27 29/60/27 27/55/27
f 32/38/28 35/41/28 17/18/28 15/15/28
f 21/61/29 24/29/29 28/33/29 30/35/29
f 26/55/30 19/20/30 35/41/30 34/40/30
f 37/20/9 38/55/9 39/13/9 40/2/9
f 41/28/8 42/21/8 43/1/8 44/48/8
f 42/21/6 37/20/6 40/2/6 43/1/6
f 44/47/12 39/46/12 38/30/12 41/29/12
