# Blender 3.6.4
# www.blender.org
mtllib Grass_Bottom.mtl
o Grass_Top.001
v 0.470711 0.000000 0.470711 0.0000 1.0000 0.0000
v 0.500000 0.000000 -0.400000 0.0000 1.0000 0.0000
v 0.470711 0.000000 -0.470711 0.0000 1.0000 0.0000
v -0.470711 0.000000 0.470711 0.0000 1.0000 0.0000
v -0.400000 -1.000000 0.400000 0.0000 1.0000 0.0000
v -0.400000 -1.000000 -0.400000 0.0000 1.0000 0.0000
v 0.400000 -1.000000 -0.400000 0.0000 1.0000 0.0000
v 0.400000 -1.000000 0.400000 0.0000 1.0000 0.0000
v 0.500000 -0.900000 -0.400000 0.0000 1.0000 0.0000
v 0.470711 -0.970711 -0.400000 0.0000 1.0000 0.0000
v 0.457735 -0.957735 -0.457735 0.0000 1.0000 0.0000
v 0.470711 -0.900000 -0.470711 0.0000 1.0000 0.0000
v 0.400000 -0.900000 -0.500000 0.0000 1.0000 0.0000
v 0.400000 -0.970711 -0.470711 0.0000 1.0000 0.0000
v 0.500000 -0.900000 0.400000 0.0000 1.0000 0.0000
v 0.470711 -0.900000 0.470711 0.0000 1.0000 0.0000
v 0.457735 -0.957735 0.457735 0.0000 1.0000 0.0000
v 0.470711 -0.970711 0.400000 0.0000 1.0000 0.0000
v 0.400000 -0.970711 0.470711 0.0000 1.0000 0.0000
v 0.400000 -0.900000 0.500000 0.0000 1.0000 0.0000
v -0.400000 -0.900000 -0.500000 0.0000 1.0000 0.0000
v -0.400000 -0.970711 -0.470711 0.0000 1.0000 0.0000
v -0.457735 -0.957735 -0.457735 0.0000 1.0000 0.0000
v -0.470711 -0.900000 -0.470711 0.0000 1.0000 0.0000
v -0.500000 -0.900000 -0.400000 0.0000 1.0000 0.0000
v -0.470711 -0.970711 -0.400000 0.0000 1.0000 0.0000
v -0.500000 -0.900000 0.400000 0.0000 1.0000 0.0000
v -0.470711 -0.970711 0.400000 0.0000 1.0000 0.0000
v -0.457735 -0.957735 0.457735 0.0000 1.0000 0.0000
v -0.470711 -0.900000 0.470711 0.0000 1.0000 0.0000
v -0.400000 -0.900000 0.500000 0.0000 1.0000 0.0000
v -0.400000 -0.970711 0.470711 0.0000 1.0000 0.0000
v 0.400000 0.000000 -0.500000 0.0000 1.0000 0.0000
v -0.500000 0.000000 -0.400000 0.0000 1.0000 0.0000
v -0.500000 0.000000 0.400000 0.0000 1.0000 0.0000
v 0.500000 0.000000 0.400000 0.0000 1.0000 0.0000
v -0.400000 0.000000 -0.500000 0.0000 1.0000 0.0000
v -0.470711 0.000000 -0.470711 0.0000 1.0000 0.0000
v -0.400000 0.000000 0.500000 0.0000 1.0000 0.0000
v 0.400000 0.000000 0.500000 0.0000 1.0000 0.0000
vn 0.7071 -0.0000 0.7071
vn 0.6965 -0.1726 0.6965
vn 0.9673 -0.1794 0.1794
vn 0.9808 -0.0000 0.1951
vn 0.9673 -0.1794 -0.1794
vn 0.6965 -0.1726 -0.6965
vn 0.7071 -0.0000 -0.7071
vn 0.9808 -0.0000 -0.1951
vn -0.1794 -0.9673 0.1794
vn -0.1794 -0.9673 -0.1794
vn 0.1794 -0.9673 -0.1794
vn 0.1794 -0.9673 0.1794
vn 0.6965 -0.6965 -0.1726
vn 0.5774 -0.5774 -0.5774
vn 0.1794 -0.1794 -0.9673
vn 0.1726 -0.6965 -0.6965
vn 0.5774 -0.5774 0.5774
vn 0.6965 -0.6965 0.1726
vn 0.1726 -0.6965 0.6965
vn 0.1794 -0.1794 0.9673
vn -0.1794 -0.1794 -0.9673
vn -0.1726 -0.6965 -0.6965
vn -0.5774 -0.5774 -0.5774
vn -0.6965 -0.1726 -0.6965
vn -0.9673 -0.1794 -0.1794
vn -0.6965 -0.6965 -0.1726
vn -0.9673 -0.1794 0.1794
vn -0.6965 -0.6965 0.1726
vn -0.5774 -0.5774 0.5774
vn -0.6965 -0.1726 0.6965
vn -0.1794 -0.1794 0.9673
vn -0.1726 -0.6965 0.6965
vn 0.1951 -0.0000 -0.9808
vn -0.1951 -0.0000 0.9808
vn -0.7071 -0.0000 0.7071
vn 0.1951 -0.0000 0.9808
vn -0.9808 -0.0000 -0.1951
vn -0.7071 -0.0000 -0.7071
vn -0.1951 -0.0000 -0.9808
vn -0.9808 -0.0000 0.1951
vt -19.685040 19.685040
vt -19.685040 15.748034
vt -19.685040 -15.748034
vt -19.685040 -19.685040
vt 15.748033 15.748031
vt 15.748033 -15.748033
vt -15.748033 -15.748033
vt -15.748033 15.748033
vt -19.685040 -15.748032
vt -19.130383 -19.130383
vt -15.748032 -19.685040
vt -19.130383 19.130383
vt -19.685040 15.748032
vt -19.685040 15.748033
vt -15.748032 19.685040
vt -15.748032 19.685038
vt 15.748032 -19.685038
vt 15.748032 -19.685040
vt 19.130383 -19.130383
vt 19.685040 -19.685040
vt 19.685040 -15.748034
vt 19.685040 -15.748032
vt 19.685040 15.748034
vt 19.685040 15.748032
vt 19.130383 19.130381
vt 19.685040 19.685040
vt 15.748032 19.685040
vt -15.748033 -19.685040
vt 15.748033 19.685040
s 1
usemtl RGB_Vertex
f 1/1/1 16/1/2 15/2/3 36/2/4
f 9/3/5 12/4/6 3/4/7 2/3/8
f 5/5/9 6/6/10 7/7/11 8/8/12
f 9/3/5 10/9/13 11/10/14 12/4/6
f 13/11/15 12/4/6 11/10/14 14/11/16
f 7/7/11 14/11/16 11/10/14 10/9/13
f 15/2/3 16/1/2 17/12/17 18/13/18
f 8/8/12 18/14/18 17/12/17 19/15/19
f 20/16/20 19/15/19 17/12/17 16/1/2
f 21/17/21 22/18/22 23/19/23 24/20/24
f 25/21/25 24/20/24 23/19/23 26/22/26
f 6/6/10 26/22/26 23/19/23 22/18/22
f 27/23/27 28/24/28 29/25/29 30/26/30
f 31/27/31 30/26/30 29/25/29 32/27/32
f 5/5/9 32/27/32 29/25/29 28/24/28
f 15/2/3 18/13/18 10/9/13 9/3/5
f 18/13/18 8/8/12 7/7/11 10/9/13
f 13/11/15 14/11/16 22/18/22 21/17/21
f 14/11/16 7/7/11 6/6/10 22/18/22
f 25/21/25 26/22/26 28/24/28 27/23/27
f 26/22/26 6/6/10 5/5/9 28/24/28
f 31/27/31 32/27/32 19/15/19 20/16/20
f 32/27/32 5/5/9 8/8/12 19/15/19
f 12/4/6 13/11/15 33/28/33 3/4/7
f 30/26/30 31/27/31 39/29/34 4/26/35
f 20/16/20 16/1/2 1/1/1 40/15/36
f 15/2/3 9/3/5 2/3/8 36/2/4
f 24/20/24 25/21/25 34/21/37 38/20/38
f 21/17/21 24/20/24 38/20/38 37/18/39
f 13/11/15 21/17/21 37/18/39 33/28/33
f 25/21/25 27/23/27 35/23/40 34/21/37
f 27/23/27 30/26/30 4/26/35 35/23/40
f 31/27/31 20/16/20 40/15/36 39/29/34
