# Blender 3.6.4
# www.blender.org
mtllib Grass_Middle.mtl
o Grass_Top.001
v -0.470711 -0.000000 0.470711 0.0000 1.0000 0.0000
v -0.470711 -0.000000 -0.470711 0.0000 1.0000 0.0000
v 0.470711 -0.000000 0.470711 0.0000 1.0000 0.0000
v 0.500000 -0.000000 -0.400000 0.0000 1.0000 0.0000
v 0.470711 -0.000000 -0.470711 0.0000 1.0000 0.0000
v 0.400000 -0.000000 -0.500000 0.0000 1.0000 0.0000
v -0.500000 -0.000000 -0.400000 0.0000 1.0000 0.0000
v -0.500000 -0.000000 0.400000 0.0000 1.0000 0.0000
v 0.500000 -0.000000 0.400000 0.0000 1.0000 0.0000
v -0.400000 -0.000000 -0.500000 0.0000 1.0000 0.0000
v -0.400000 -0.000000 0.500000 0.0000 1.0000 0.0000
v 0.400000 -0.000000 0.500000 0.0000 1.0000 0.0000
v 0.500000 -1.000000 0.400000 0.0000 1.0000 0.0000
v -0.400000 -1.000000 0.500000 0.0000 1.0000 0.0000
v 0.400000 -1.000000 0.500000 0.0000 1.0000 0.0000
v 0.470711 -1.000000 0.470711 0.0000 1.0000 0.0000
v -0.400000 -1.000000 -0.500000 0.0000 1.0000 0.0000
v 0.470711 -1.000000 -0.470711 0.0000 1.0000 0.0000
v -0.500000 -1.000000 0.400000 0.0000 1.0000 0.0000
v -0.500000 -1.000000 -0.400000 0.0000 1.0000 0.0000
v 0.400000 -1.000000 -0.500000 0.0000 1.0000 0.0000
v 0.500000 -1.000000 -0.400000 0.0000 1.0000 0.0000
v -0.470711 -1.000000 0.470711 0.0000 1.0000 0.0000
v -0.470711 -1.000000 -0.470711 0.0000 1.0000 0.0000
vn -0.6611 0.0613 -0.7478
vn -0.7900 -0.0000 -0.6131
vn -0.9721 0.1326 -0.1934
vn -0.9639 0.0615 -0.2591
vn 0.6611 0.0613 0.7478
vn 0.6131 0.0001 0.7900
vn 0.9721 0.1326 0.1934
vn 0.9639 0.0615 0.2591
vn -0.9980 -0.0000 0.0634
vn -0.9888 0.0660 0.1340
vn -0.7016 -0.1251 0.7015
vn -0.7478 0.0613 0.6611
vn -0.0634 -0.0000 -0.9980
vn -0.1340 0.0660 -0.9888
vn 0.2591 0.0615 -0.9639
vn 0.1934 -0.1326 -0.9721
vn 0.1340 0.0660 0.9888
vn 0.1934 -0.1326 0.9721
vn -0.3234 -0.0000 0.9463
vn -0.2591 0.0615 0.9639
vn 0.7016 -0.1251 -0.7015
vn 0.7478 0.0613 -0.6611
vn 0.9888 0.0660 -0.1340
vn 0.9721 -0.1326 -0.1934
vt 19.685040 -19.685040
vt 19.685040 -15.748034
vt -19.685040 19.685040
vt -19.685040 15.748034
vt 19.685040 15.748034
vt 19.685040 19.685040
vt 15.748032 -19.685040
vt -15.748033 -19.685040
vt -15.748032 -19.685040
vt -15.748032 19.685040
vt 15.748032 19.685040
vt 15.748033 19.685040
vt -19.685040 -19.685040
vt -19.685040 -15.748034
s 1
usemtl RGB_Vertex
f 2/1/1 24/1/2 20/2/3 7/2/4
f 3/3/5 16/3/6 13/4/7 9/4/8
f 19/5/9 8/5/10 7/2/4 20/2/3
f 23/6/11 1/6/12 8/5/10 19/5/9
f 17/7/13 10/7/14 6/8/15 21/9/16
f 16/3/6 3/3/5 12/10/17 15/10/18
f 14/11/19 11/12/20 1/6/12 23/6/11
f 15/10/18 12/10/17 11/12/20 14/11/19
f 18/13/21 5/13/22 4/14/23 22/14/24
f 21/9/16 6/8/15 5/13/22 18/13/21
f 22/14/24 4/14/23 9/4/8 13/4/7
f 24/1/2 2/1/1 10/7/14 17/7/13
