# Blender 3.6.2
# www.blender.org
mtllib Grass.mtl
o Grass-██.LOD1
v 0.500000 -0.100000 -0.400000 1.0000 0.0000 0.0000
v 0.400000 0.000000 -0.400000 1.0000 0.0000 0.0000
v 0.400000 -0.100000 -0.500000 1.0000 0.0000 0.0000
v 0.470711 -0.029289 -0.400000 1.0000 0.0000 0.0000
v 0.457735 -0.042265 -0.457735 1.0000 0.0000 0.0000
v 0.400000 -0.029289 -0.470711 1.0000 0.0000 0.0000
v 0.470711 -0.100000 -0.470711 1.0000 0.0000 0.0000
v 0.500000 -0.100000 0.400000 1.0000 0.0000 0.0000
v 0.400000 -0.100000 0.500000 1.0000 0.0000 0.0000
v 0.400000 -0.000000 0.400000 1.0000 0.0000 0.0000
v 0.470711 -0.100000 0.470711 1.0000 0.0000 0.0000
v 0.457735 -0.042265 0.457735 1.0000 0.0000 0.0000
v 0.400000 -0.029289 0.470711 1.0000 0.0000 0.0000
v 0.470711 -0.029289 0.400000 1.0000 0.0000 0.0000
v -0.400000 -0.100000 -0.500000 1.0000 0.0000 0.0000
v -0.400000 0.000000 -0.400000 1.0000 0.0000 0.0000
v -0.500000 -0.100000 -0.400000 1.0000 0.0000 0.0000
v -0.400000 -0.029289 -0.470711 1.0000 0.0000 0.0000
v -0.457735 -0.042265 -0.457735 1.0000 0.0000 0.0000
v -0.470711 -0.029289 -0.400000 1.0000 0.0000 0.0000
v -0.470711 -0.100000 -0.470711 1.0000 0.0000 0.0000
v -0.500000 -0.100000 0.400000 1.0000 0.0000 0.0000
v -0.400000 -0.000000 0.400000 1.0000 0.0000 0.0000
v -0.400000 -0.100000 0.500000 1.0000 0.0000 0.0000
v -0.470711 -0.029289 0.400000 1.0000 0.0000 0.0000
v -0.457735 -0.042265 0.457735 1.0000 0.0000 0.0000
v -0.400000 -0.029289 0.470711 1.0000 0.0000 0.0000
v -0.470711 -0.100000 0.470711 1.0000 0.0000 0.0000
v 0.500000 -0.900000 -0.400000 0.0000 1.0000 0.0000
v 0.400000 -0.900000 -0.500000 0.0000 1.0000 0.0000
v 0.400000 -1.000000 -0.400000 0.0000 1.0000 0.0000
v 0.470711 -0.900000 -0.470711 0.0000 1.0000 0.0000
v 0.457735 -0.957735 -0.457735 0.0000 1.0000 0.0000
v 0.400000 -0.970711 -0.470711 0.0000 1.0000 0.0000
v 0.470711 -0.970711 -0.400000 0.0000 1.0000 0.0000
v 0.500000 -0.900000 0.400000 0.0000 1.0000 0.0000
v 0.400000 -1.000000 0.400000 0.0000 1.0000 0.0000
v 0.400000 -0.900000 0.500000 0.0000 1.0000 0.0000
v 0.470711 -0.970711 0.400000 0.0000 1.0000 0.0000
v 0.457735 -0.957735 0.457735 0.0000 1.0000 0.0000
v 0.400000 -0.970711 0.470711 0.0000 1.0000 0.0000
v 0.470711 -0.900000 0.470711 0.0000 1.0000 0.0000
v -0.400000 -0.900000 -0.500000 0.0000 1.0000 0.0000
v -0.500000 -0.900000 -0.400000 0.0000 1.0000 0.0000
v -0.400000 -1.000000 -0.400000 0.0000 1.0000 0.0000
v -0.470711 -0.900000 -0.470711 0.0000 1.0000 0.0000
v -0.457735 -0.957735 -0.457735 0.0000 1.0000 0.0000
v -0.470711 -0.970711 -0.400000 0.0000 1.0000 0.0000
v -0.400000 -0.970711 -0.470711 0.0000 1.0000 0.0000
v -0.500000 -0.900000 0.400000 0.0000 1.0000 0.0000
v -0.400000 -0.900000 0.500000 0.0000 1.0000 0.0000
v -0.400000 -1.000000 0.400000 0.0000 1.0000 0.0000
v -0.470711 -0.900000 0.470711 0.0000 1.0000 0.0000
v -0.457735 -0.957735 0.457735 0.0000 1.0000 0.0000
v -0.400000 -0.970711 0.470711 0.0000 1.0000 0.0000
v -0.470711 -0.970711 0.400000 0.0000 1.0000 0.0000
v 0.500000 -0.210000 0.400000 0.0000 1.0000 0.0000
v 0.521991 -0.267129 0.417593 1.0000 0.0000 0.0000
v 0.488857 -0.246492 0.488857 1.0000 0.0000 0.0000
v 0.470711 -0.210000 0.470711 0.0000 1.0000 0.0000
v 0.400000 -0.210000 0.500000 0.0000 1.0000 0.0000
v 0.420000 -0.290000 0.525000 1.0000 0.0000 0.0000
v -0.500000 -0.210000 0.400000 0.0000 1.0000 0.0000
v -0.521396 -0.262610 0.417117 1.0000 0.0000 0.0000
v -0.470711 -0.210000 0.470711 0.0000 1.0000 0.0000
v -0.486854 -0.230324 0.486854 1.0000 0.0000 0.0000
v -0.420000 -0.290000 0.525000 1.0000 0.0000 0.0000
v -0.400000 -0.210000 0.500000 0.0000 1.0000 0.0000
v -0.521752 -0.265315 -0.417402 1.0000 0.0000 0.0000
v -0.500000 -0.210000 -0.400000 0.0000 1.0000 0.0000
v -0.488494 -0.243560 -0.488494 1.0000 0.0000 0.0000
v -0.470711 -0.210000 -0.470711 0.0000 1.0000 0.0000
v -0.400000 -0.210000 -0.500000 0.0000 1.0000 0.0000
v -0.417773 -0.268842 -0.522216 1.0000 0.0000 0.0000
v 0.523165 -0.276057 -0.418532 1.0000 0.0000 0.0000
v 0.500000 -0.210000 -0.400000 0.0000 1.0000 0.0000
v 0.470711 -0.210000 -0.470711 0.0000 1.0000 0.0000
v 0.490179 -0.257166 -0.490179 1.0000 0.0000 0.0000
v 0.420000 -0.290000 -0.525000 1.0000 0.0000 0.0000
v 0.400000 -0.210000 -0.500000 0.0000 1.0000 0.0000
v 0.400000 0.000000 0.000000 1.0000 0.0000 0.0000
v 0.470711 -0.029289 0.000000 1.0000 0.0000 0.0000
v 0.500000 -0.100000 0.000000 1.0000 0.0000 0.0000
v 0.000000 0.000000 -0.400000 1.0000 0.0000 0.0000
v 0.000000 -0.029289 -0.470711 1.0000 0.0000 0.0000
v 0.000000 -0.100000 -0.500000 1.0000 0.0000 0.0000
v -0.400000 0.000000 0.000000 1.0000 0.0000 0.0000
v -0.470711 -0.029289 0.000000 1.0000 0.0000 0.0000
v -0.500000 -0.100000 0.000000 1.0000 0.0000 0.0000
v 0.000000 -0.000000 0.400000 1.0000 0.0000 0.0000
v 0.000000 -0.029289 0.470711 1.0000 0.0000 0.0000
v 0.000000 -0.100000 0.500000 1.0000 0.0000 0.0000
v 0.518300 -0.239080 0.076860 1.0000 0.0000 0.0000
v 0.139837 -0.226520 0.516647 1.0000 0.0000 0.0000
v -0.518104 -0.237588 -0.078353 1.0000 0.0000 0.0000
v -0.152593 -0.238060 -0.518166 1.0000 0.0000 0.0000
v 0.000000 0.000000 0.000000 1.0000 0.0000 0.0000
vn -0.1794 -0.9673 0.1794
vn -0.1794 -0.9673 -0.1794
vn 0.1794 -0.9673 -0.1794
vn 0.1794 -0.9673 0.1794
vn -0.0000 1.0000 -0.0000
vn 0.1951 0.9808 -0.0000
vn 0.1794 0.9673 -0.1794
vn -0.0000 0.9808 -0.1951
vn 0.9524 0.2520 -0.1716
vn 0.6830 0.2588 -0.6830
vn 0.5774 0.5774 -0.5774
vn 0.6965 0.6965 -0.1726
vn 0.1726 0.6965 -0.6965
vn 0.1716 0.2520 -0.9524
vn 0.9524 0.2520 0.1716
vn 0.6965 0.6965 0.1726
vn 0.5773 0.5774 0.5774
vn 0.6830 0.2588 0.6830
vn 0.1716 0.2520 0.9524
vn 0.1726 0.6965 0.6965
vn 0.1794 0.9673 0.1794
vn -0.1716 0.2520 -0.9524
vn -0.6830 0.2588 -0.6830
vn -0.5774 0.5774 -0.5774
vn -0.1726 0.6965 -0.6965
vn -0.1794 0.9673 -0.1794
vn -0.6965 0.6965 -0.1726
vn -0.9524 0.2520 -0.1716
vn -0.9524 0.2520 0.1716
vn -0.6830 0.2588 0.6830
vn -0.5773 0.5773 0.5774
vn -0.6965 0.6965 0.1726
vn -0.1794 0.9673 0.1794
vn -0.1726 0.6965 0.6965
vn -0.1716 0.2520 0.9524
vn 0.9673 -0.1794 -0.1794
vn 0.6965 -0.6965 -0.1726
vn 0.5774 -0.5774 -0.5774
vn 0.6965 -0.1726 -0.6965
vn 0.1794 -0.1794 -0.9673
vn 0.1726 -0.6965 -0.6965
vn 0.9673 -0.1794 0.1794
vn 0.6965 -0.1726 0.6965
vn 0.5773 -0.5774 0.5774
vn 0.6965 -0.6965 0.1726
vn 0.1726 -0.6965 0.6965
vn 0.1794 -0.1794 0.9673
vn -0.1794 -0.1794 -0.9673
vn -0.1726 -0.6965 -0.6965
vn -0.5774 -0.5774 -0.5774
vn -0.6965 -0.1726 -0.6965
vn -0.9673 -0.1794 -0.1794
vn -0.6965 -0.6965 -0.1726
vn -0.9673 -0.1794 0.1794
vn -0.6965 -0.6965 0.1726
vn -0.5774 -0.5774 0.5773
vn -0.6965 -0.1726 0.6965
vn -0.1794 -0.1794 0.9673
vn -0.1726 -0.6965 0.6965
vn 0.7071 0.7071 -0.0000
vn 0.9659 0.2588 -0.0000
vn -0.0000 0.7071 -0.7071
vn -0.0000 0.2588 -0.9659
vn -0.1951 0.9808 -0.0000
vn -0.7071 0.7071 -0.0000
vn -0.9659 0.2588 -0.0000
vn -0.0000 0.9808 0.1951
vn -0.0000 0.7071 0.7071
vn -0.0000 0.2588 0.9659
vn -0.9808 -0.0000 -0.1951
vn -0.9808 -0.0000 0.1951
vn -0.1951 -0.0000 0.9808
vn -0.7071 -0.0000 0.7071
vn 0.7071 -0.0000 -0.7071
vn 0.9808 -0.0000 -0.1951
vn 0.1951 -0.0000 -0.9808
vn 0.9808 -0.0000 0.1951
vn 0.7071 -0.0000 0.7071
vn 0.1808 0.1470 0.9725
vn 0.6766 0.1725 0.7158
vn 0.6834 0.1725 -0.7094
vn 0.1806 0.1470 -0.9725
vn -0.7071 -0.0000 -0.7071
vn -0.1951 -0.0000 -0.9808
vn -0.0000 0.1305 -0.9915
vn -0.1889 0.1476 -0.9708
vn -0.6931 0.1726 -0.6999
vn -0.9707 0.1477 -0.1896
vn -0.6771 0.1725 0.7154
vn -0.1585 0.1452 0.9766
vn 0.1951 -0.0000 0.9808
vn -0.0000 0.1305 0.9915
vn 0.9915 0.1305 -0.0000
vn 0.9703 0.1478 -0.1916
vn -0.9915 0.1305 -0.0000
vn -0.9730 0.1468 0.1781
vn 0.9705 0.1478 0.1906
vt 15.748033 15.748031
vt 15.748033 -15.748033
vt -15.748033 -15.748033
vt -15.748033 15.748033
vt -0.000000 0.000000
vt -15.748033 0.000000
vt 0.000000 -15.748033
vt -19.685043 -15.748033
vt -19.685040 -19.685040
vt -19.130383 -19.130383
vt -19.685040 -15.748032
vt -15.748032 -19.685040
vt -15.748034 -19.685040
vt -19.685040 15.748034
vt -19.685040 15.748033
vt -19.130383 19.130383
vt -19.685040 19.685040
vt -15.748033 19.685040
vt -15.748032 19.685040
vt 15.748033 -19.685040
vt 19.685040 -19.685040
vt 19.130383 -19.130383
vt 15.748032 -19.685040
vt 19.685040 -15.748032
vt 19.685040 -15.748034
vt 19.685040 15.748033
vt 19.685040 19.685040
vt 19.130383 19.130383
vt 19.685040 15.748032
vt 15.748031 15.748033
vt 15.748032 19.685040
vt 15.748034 19.685040
vt -19.685040 -15.748034
vt -19.685040 15.748032
vt -15.748032 19.685038
vt 15.748032 -19.685038
vt 19.685040 15.748034
vt 19.130383 19.130381
vt -19.685040 0.000000
vt -19.685041 0.000000
vt 0.000000 -19.685040
vt -0.000000 -19.685040
vt 15.748032 0.000000
vt 19.685040 0.000000
vt 19.685040 -0.000000
vt -0.000001 15.748033
vt 0.000000 19.685040
vt 0.000000 19.685040
vt -19.685041 -15.748034
vt -0.000001 -19.685040
vt 0.000001 19.685040
vt -19.685040 0.000000
s 1
usemtl RGB_Vertex
f 52/1/1 45/2/2 31/3/3 37/4/4
f 97/5/5 81/6/6 2/3/7 84/7/8
f 1/8/9 7/9/10 5/10/11 4/11/12
f 2/3/7 4/11/12 5/10/11 6/12/13
f 3/13/14 6/12/13 5/10/11 7/9/10
f 8/14/15 14/15/16 12/16/17 11/17/18
f 9/18/19 11/17/18 12/16/17 13/19/20
f 10/4/21 13/19/20 12/16/17 14/15/16
f 15/20/22 21/21/23 19/22/24 18/23/25
f 16/2/26 18/23/25 19/22/24 20/24/27
f 17/25/28 20/24/27 19/22/24 21/21/23
f 22/26/29 28/27/30 26/28/31 25/29/32
f 23/30/33 25/29/32 26/28/31 27/31/34
f 24/32/35 27/31/34 26/28/31 28/27/30
f 29/33/36 35/11/37 33/10/38 32/9/39
f 30/12/40 32/9/39 33/10/38 34/12/41
f 31/3/3 34/12/41 33/10/38 35/11/37
f 36/14/42 42/17/43 40/16/44 39/34/45
f 37/4/4 39/15/45 40/16/44 41/19/46
f 38/35/47 41/19/46 40/16/44 42/17/43
f 43/36/48 49/23/49 47/22/50 46/21/51
f 44/25/52 46/21/51 47/22/50 48/24/53
f 45/2/2 48/24/53 47/22/50 49/23/49
f 50/37/54 56/29/55 54/38/56 53/27/57
f 51/31/58 53/27/57 54/38/56 55/31/59
f 52/1/1 55/31/59 54/38/56 56/29/55
f 81/6/6 82/39/60 4/11/12 2/3/7
f 82/39/60 83/40/61 1/8/9 4/11/12
f 84/7/8 85/41/62 18/23/25 16/2/26
f 85/41/62 86/42/63 15/20/22 18/23/25
f 87/43/64 88/44/65 25/29/32 23/30/33
f 88/44/65 89/45/66 22/26/29 25/29/32
f 90/46/67 91/47/68 13/19/20 10/4/21
f 91/47/68 92/48/69 9/18/19 13/19/20
f 36/14/42 39/34/45 35/11/37 29/33/36
f 39/34/45 37/4/4 31/3/3 35/11/37
f 30/12/40 34/12/41 49/23/49 43/36/48
f 34/12/41 31/3/3 45/2/2 49/23/49
f 44/25/52 48/24/53 56/29/55 50/37/54
f 48/24/53 45/2/2 52/1/1 56/29/55
f 51/31/58 55/31/59 41/19/46 38/35/47
f 55/31/59 52/1/1 37/4/4 41/19/46
f 70/25/70 44/25/52 50/37/54 63/37/71
f 53/27/57 51/31/58 68/32/72 65/27/73
f 29/33/36 32/9/39 77/9/74 76/49/75
f 32/9/39 30/12/40 80/13/76 77/9/74
f 57/14/77 60/17/78 42/17/43 36/14/42
f 11/17/18 9/18/19 62/19/79 59/17/80
f 78/9/81 79/13/82 3/13/14 7/9/10
f 72/21/83 73/23/84 43/36/48 46/21/51
f 86/42/63 96/50/85 74/23/86 15/20/22
f 70/25/70 72/21/83 46/21/51 44/25/52
f 21/21/23 15/20/22 74/23/86 71/21/87
f 17/25/28 21/21/23 71/21/87 69/25/88
f 66/27/89 67/32/90 24/32/35 28/27/30
f 60/17/78 61/19/91 38/35/47 42/17/43
f 92/48/69 94/51/92 62/19/79 9/18/19
f 83/40/61 93/52/93 75/49/94 1/8/9
f 57/14/77 36/14/42 29/33/36 76/49/75
f 68/32/72 51/31/58 38/35/47 61/19/91
f 89/45/66 95/44/95 64/37/96 22/26/29
f 64/37/96 66/27/89 28/27/30 22/26/29
f 50/37/54 53/27/57 65/27/73 63/37/71
f 80/13/76 30/12/40 43/36/48 73/23/84
f 75/49/94 78/9/81 7/9/10 1/8/9
f 14/15/16 8/14/15 83/40/61 82/39/60
f 6/12/13 3/13/14 86/42/63 85/41/62
f 10/4/21 14/15/16 82/39/60 81/6/6
f 23/30/33 27/31/34 91/47/68 90/46/67
f 20/24/27 17/25/28 89/45/66 88/44/65
f 24/32/35 67/32/90 94/51/92 92/48/69
f 3/13/14 79/13/82 96/50/85 86/42/63
f 17/25/28 69/25/88 95/44/95 89/45/66
f 2/3/7 6/12/13 85/41/62 84/7/8
f 8/14/15 58/14/97 93/52/93 83/40/61
f 27/31/34 24/32/35 92/48/69 91/47/68
f 16/2/26 20/24/27 88/44/65 87/43/64
f 8/14/15 11/17/18 59/17/80 58/14/97
f 87/43/64 97/5/5 84/7/8 16/2/26
f 23/30/33 90/46/67 97/5/5 87/43/64
f 90/46/67 10/4/21 81/6/6 97/5/5
