# Blender 3.6.5
# www.blender.org
mtllib Dice - Same Sides.mtl
o Dice_(Same_Sides)_Mesh
v -0.400000 0.400000 0.500000
v -0.400000 0.500000 0.400000
v -0.500000 0.400000 0.400000
v -0.400000 0.470711 0.470711
v -0.457735 0.457735 0.457735
v -0.470711 0.470711 0.400000
v -0.470711 0.400000 0.470711
v -0.400000 -0.500000 0.400000
v -0.400000 -0.400000 0.500000
v -0.500000 -0.400000 0.400000
v -0.400000 -0.470711 0.470711
v -0.457735 -0.457735 0.457735
v -0.470711 -0.400000 0.470711
v -0.470711 -0.470711 0.400000
v -0.500000 0.400000 -0.400000
v -0.400000 0.500000 -0.400000
v -0.400000 0.400000 -0.500000
v -0.470711 0.470711 -0.400000
v -0.457735 0.457735 -0.457735
v -0.400000 0.470711 -0.470710
v -0.470711 0.400000 -0.470710
v -0.500000 -0.400000 -0.400000
v -0.400000 -0.400000 -0.500000
v -0.400000 -0.500000 -0.400000
v -0.470711 -0.400000 -0.470711
v -0.457735 -0.457735 -0.457735
v -0.400000 -0.470711 -0.470711
v -0.470711 -0.470711 -0.400000
v 0.400000 0.400000 0.500000
v 0.500000 0.400000 0.400000
v 0.400000 0.500000 0.400000
v 0.470711 0.400000 0.470711
v 0.457735 0.457735 0.457735
v 0.470711 0.470711 0.400000
v 0.400000 0.470711 0.470711
v 0.500000 -0.400000 0.400000
v 0.400000 -0.400000 0.500000
v 0.400000 -0.500000 0.400000
v 0.470711 -0.400000 0.470710
v 0.457735 -0.457735 0.457735
v 0.400000 -0.470711 0.470710
v 0.470711 -0.470711 0.400000
v 0.500000 0.400000 -0.400000
v 0.400000 0.400000 -0.500000
v 0.400000 0.500000 -0.400000
v 0.470711 0.400000 -0.470711
v 0.457735 0.457735 -0.457735
v 0.400000 0.470711 -0.470711
v 0.470711 0.470711 -0.400000
v 0.400000 -0.500000 -0.400000
v 0.400000 -0.400000 -0.500000
v 0.500000 -0.400000 -0.400000
v 0.400000 -0.470711 -0.470711
v 0.457735 -0.457735 -0.457735
v 0.470711 -0.400000 -0.470711
v 0.470711 -0.470711 -0.400000
vn 0.1794 -0.9673 0.1794
vn -0.1794 -0.9673 0.1794
vn -0.1794 -0.9673 -0.1794
vn 0.1794 -0.9673 -0.1794
vn 0.9673 -0.1794 -0.1794
vn 0.9673 0.1794 -0.1794
vn 0.9673 0.1794 0.1794
vn 0.9673 -0.1794 0.1794
vn -0.1794 -0.1794 -0.9673
vn -0.1794 0.1794 -0.9673
vn 0.1794 0.1794 -0.9673
vn 0.1794 -0.1794 -0.9673
vn -0.1794 0.9673 0.1794
vn 0.1794 0.9673 0.1794
vn 0.1794 0.9673 -0.1794
vn -0.1794 0.9673 -0.1794
vn -0.9673 -0.1794 0.1794
vn -0.9673 0.1794 0.1794
vn -0.9673 0.1794 -0.1794
vn -0.9673 -0.1794 -0.1794
vn -0.1794 0.1794 0.9673
vn -0.1726 0.6965 0.6965
vn -0.5773 0.5774 0.5774
vn -0.6965 0.1726 0.6965
vn -0.6965 0.6965 0.1726
vn -0.1726 -0.6965 0.6965
vn -0.5773 -0.5774 0.5774
vn -0.6965 -0.6965 0.1726
vn -0.1794 -0.1794 0.9673
vn -0.6965 -0.1726 0.6965
vn -0.6965 0.6965 -0.1726
vn -0.5774 0.5774 -0.5773
vn -0.6965 0.1726 -0.6965
vn -0.1726 0.6965 -0.6965
vn -0.6965 -0.1726 -0.6965
vn -0.5774 -0.5773 -0.5774
vn -0.6965 -0.6965 -0.1726
vn -0.1726 -0.6965 -0.6965
vn 0.1794 0.1794 0.9673
vn 0.6965 0.1726 0.6965
vn 0.5774 0.5773 0.5774
vn 0.1726 0.6965 0.6965
vn 0.6965 0.6965 0.1726
vn 0.6965 -0.1726 0.6965
vn 0.5774 -0.5774 0.5773
vn 0.6965 -0.6965 0.1726
vn 0.1794 -0.1794 0.9673
vn 0.1726 -0.6965 0.6965
vn 0.6965 0.1726 -0.6965
vn 0.5773 0.5774 -0.5774
vn 0.6965 0.6965 -0.1726
vn 0.1726 0.6965 -0.6965
vn 0.1726 -0.6965 -0.6965
vn 0.5773 -0.5774 -0.5774
vn 0.6965 -0.6965 -0.1726
vn 0.6965 -0.1726 -0.6965
vt 0.915518 0.080588
vt 0.916107 0.912179
vt 0.084482 0.919412
vt 0.083893 0.087821
vt 0.084482 0.080588
vt 0.916107 0.087821
vt 0.915518 0.919412
vt 0.083894 0.912180
vt 0.086394 0.918296
vt 0.084427 0.089086
vt 0.913606 0.081704
vt 0.915573 0.910914
vt 0.915518 0.080588
vt 0.916107 0.912179
vt 0.084482 0.919412
vt 0.083893 0.087821
vt 0.914523 0.919761
vt 0.084178 0.910775
vt 0.085081 0.082086
vt 0.915810 0.087361
vt 0.085081 0.082086
vt 0.004219 0.078231
vt 0.016414 0.013245
vt 0.081531 0.001764
vt 0.918946 0.000100
vt 0.984272 0.011490
vt 0.996611 0.076644
vt 0.079787 0.990379
vt 0.015857 0.978231
vt 0.004590 0.914143
vt 0.996611 0.915780
vt 0.985202 0.980926
vt 0.920230 0.993272
vt 0.915810 0.087361
vt 0.919811 0.006286
vt 0.984838 0.018527
vt 0.996352 0.083691
vt 0.996352 0.923972
vt 0.983880 0.990007
vt 0.917680 1.001565
vt 0.004220 0.078231
vt 0.016414 0.013244
vt 0.081531 0.001764
vt 0.003389 0.084220
vt 0.014798 0.019074
vt 0.079771 0.006729
vt 0.004830 0.085684
vt 0.016172 0.021596
vt 0.080128 0.009532
vt 0.919811 0.006286
vt 0.984838 0.018527
vt 0.996352 0.083691
vt 0.083155 0.999901
vt 0.017184 0.988289
vt 0.004830 0.922454
vt 0.081054 0.999900
vt 0.015728 0.988510
vt 0.003389 0.923356
vt 0.084178 0.910775
vt 0.079787 0.990379
vt 0.015857 0.978232
vt 0.004590 0.914143
vt 0.996612 0.923356
vt 0.984272 0.988510
vt 0.918946 0.999900
vt 0.985202 0.980926
vt 0.920230 0.993272
vt 0.079771 0.993272
vt 0.014798 0.980926
vt 0.003389 0.915781
vt 0.996352 0.923972
vt 0.983880 0.990007
vt 0.917680 1.001565
vt 0.918946 0.000100
vt 0.984272 0.011490
vt 0.996611 0.076644
vt 0.920230 0.006728
vt 0.985202 0.019074
vt 0.996612 0.084220
vt 0.916845 0.000100
vt 0.982816 0.011711
vt 0.995170 0.077546
vt 0.081054 0.999900
vt 0.015728 0.988510
vt 0.003389 0.923356
vt 0.003389 0.084220
vt 0.014798 0.019074
vt 0.079770 0.006728
vt 0.995170 0.914316
vt 0.983828 0.978404
vt 0.919872 0.990467
vt 0.003388 0.076644
vt 0.015728 0.011491
vt 0.081054 0.000100
s 1
usemtl Material.001
f 38/1/1 8/2/2 24/3/3 50/4/4
f 52/5/5 43/6/6 30/7/7 36/8/8
f 23/9/9 17/10/10 44/11/11 51/12/12
f 2/13/13 31/14/14 45/15/15 16/16/16
f 10/17/17 3/18/18 15/19/19 22/20/20
f 1/21/21 4/22/22 5/23/23 7/24/24
f 2/13/13 6/25/25 5/26/23 4/27/22
f 3/18/18 7/28/24 5/29/23 6/30/25
f 8/2/2 11/31/26 12/32/27 14/33/28
f 9/34/29 13/35/30 12/36/27 11/37/26
f 10/17/17 14/38/28 12/39/27 13/40/30
f 15/19/19 18/41/31 19/42/32 21/43/33
f 16/16/16 20/44/34 19/45/32 18/46/31
f 17/10/10 21/47/33 19/48/32 20/49/34
f 22/20/20 25/50/35 26/51/36 28/52/37
f 23/9/9 27/53/38 26/54/36 25/55/35
f 24/3/3 28/56/37 26/57/36 27/58/38
f 29/59/39 32/60/40 33/61/41 35/62/42
f 30/7/7 34/63/43 33/64/41 32/65/40
f 31/14/14 35/31/42 33/66/41 34/67/43
f 36/8/8 39/68/44 40/69/45 42/70/46
f 37/17/47 41/71/48 40/72/45 39/73/44
f 38/1/1 42/74/46 40/75/45 41/76/48
f 43/6/6 46/77/49 47/78/50 49/79/51
f 44/11/11 48/80/52 47/81/50 46/82/49
f 45/15/15 49/83/51 47/84/50 48/85/52
f 50/4/4 53/86/53 54/87/54 56/88/55
f 51/12/12 55/89/56 54/90/54 53/91/53
f 52/5/5 56/92/55 54/93/54 55/94/56
f 50/4/4 56/88/55 42/74/46 38/1/1
f 52/5/5 36/8/8 42/70/46 56/92/55
f 38/1/1 41/76/48 11/31/26 8/2/2
f 37/17/47 9/34/29 11/37/26 41/71/48
f 10/17/17 13/40/30 7/28/24 3/18/18
f 9/34/29 1/21/21 7/24/24 13/35/30
f 44/11/11 46/82/49 55/89/56 51/12/12
f 43/6/6 52/5/5 55/94/56 46/77/49
f 23/9/9 25/55/35 21/47/33 17/10/10
f 22/20/20 15/19/19 21/43/33 25/50/35
f 37/17/47 39/73/44 32/60/40 29/59/39
f 36/8/8 30/7/7 32/65/40 39/68/44
f 45/15/15 48/85/52 20/44/34 16/16/16
f 44/11/11 17/10/10 20/49/34 48/80/52
f 16/16/16 18/46/31 6/25/25 2/13/13
f 15/19/19 3/18/18 6/30/25 18/41/31
f 24/3/3 27/58/38 53/86/53 50/4/4
f 23/9/9 51/12/12 53/91/53 27/53/38
f 31/14/14 34/67/43 49/83/51 45/15/15
f 30/7/7 43/6/6 49/79/51 34/63/43
f 2/13/13 4/27/22 35/31/42 31/14/14
f 1/21/21 29/59/39 35/62/42 4/22/22
f 8/2/2 14/33/28 28/56/37 24/3/3
f 10/17/17 22/20/20 28/52/37 14/38/28
f 37/17/47 29/59/39 1/21/21 9/34/29
